<svg width="18" height="18" viewBox="0 0 18 18" fill="none" xmlns="http://www.w3.org/2000/svg">
<path d="M2.625 0.75C1.17525 0.75 0 1.92525 0 3.375C0 4.82475 1.17525 6 2.625 6H15.375C16.8247 6 18 4.82475 18 3.375C18 1.92525 16.8247 0.75 15.375 0.75H2.625Z" fill="white"/>
<path d="M0.75 8.25C0.335786 8.25 0 8.58579 0 9C0 9.41421 0.335786 9.75 0.75 9.75H17.25C17.6642 9.75 18 9.41421 18 9C18 8.58579 17.6642 8.25 17.25 8.25H0.75Z" fill="white"/>
<path d="M0 12.75C0 12.3358 0.335786 12 0.75 12H17.25C17.6642 12 18 12.3358 18 12.75C18 13.1642 17.6642 13.5 17.25 13.5H0.75C0.335786 13.5 0 13.1642 0 12.75Z" fill="white"/>
<path d="M0.75 15.75C0.335786 15.75 0 16.0858 0 16.5C0 16.9142 0.335786 17.25 0.75 17.25H17.25C17.6642 17.25 18 16.9142 18 16.5C18 16.0858 17.6642 15.75 17.25 15.75H0.75Z" fill="white"/>
</svg>
