<svg width="22" height="19" viewBox="0 0 22 19" fill="none" xmlns="http://www.w3.org/2000/svg">
<path d="M11 4.5C9.75736 4.5 8.75 5.50736 8.75 6.75C8.75 7.99264 9.75736 9 11 9C12.2426 9 13.25 7.99264 13.25 6.75C13.25 5.50736 12.2426 4.5 11 4.5Z" fill="white"/>
<path fill-rule="evenodd" clip-rule="evenodd" d="M0.5 1.875C0.5 0.839466 1.33947 0 2.375 0H19.625C20.6605 0 21.5 0.839466 21.5 1.875V11.625C21.5 12.6605 20.6605 13.5 19.625 13.5H2.375C1.33947 13.5 0.5 12.6605 0.5 11.625V1.875ZM7.25 6.75C7.25 4.67893 8.92893 3 11 3C13.0711 3 14.75 4.67893 14.75 6.75C14.75 8.82107 13.0711 10.5 11 10.5C8.92893 10.5 7.25 8.82107 7.25 6.75ZM17.75 6C17.3358 6 17 6.33579 17 6.75V6.7575C17 7.17171 17.3358 7.5075 17.75 7.5075H17.7575C18.1717 7.5075 18.5075 7.17171 18.5075 6.7575V6.75C18.5075 6.33579 18.1717 6 17.7575 6H17.75ZM3.5 6.75C3.5 6.33579 3.83579 6 4.25 6H4.2575C4.67171 6 5.0075 6.33579 5.0075 6.75V6.7575C5.0075 7.17171 4.67171 7.5075 4.2575 7.5075H4.25C3.83579 7.5075 3.5 7.17171 3.5 6.7575V6.75Z" fill="white"/>
<path d="M1.25 15C0.835786 15 0.5 15.3358 0.5 15.75C0.5 16.1642 0.835786 16.5 1.25 16.5C6.65005 16.5 11.8802 17.2222 16.8498 18.5749C18.0404 18.899 19.25 18.0168 19.25 16.7551V15.75C19.25 15.3358 18.9142 15 18.5 15H1.25Z" fill="white"/>
</svg>
