<svg width="22" height="21" viewBox="0 0 22 21" fill="none" xmlns="http://www.w3.org/2000/svg">
<path d="M1.17687 11.2307C1.16928 12.8317 2.28607 14.2307 3.86899 14.4711C4.95433 14.6359 6.05167 14.7645 7.15974 14.8554L7.13771 19.4997L11.233 15.443C11.51 15.1687 11.8829 15.014 12.2726 15.005C14.1962 14.9605 16.0922 14.8027 17.9539 14.538C19.539 14.3127 20.6691 12.9244 20.6767 11.3233L20.7052 5.30446C20.7128 3.70339 19.596 2.30444 18.013 2.06403C15.7162 1.71521 13.3656 1.52904 10.9734 1.51769C8.58085 1.50634 6.2284 1.67023 3.92818 1.9973C2.34304 2.22269 1.21302 3.61097 1.20543 5.21203L1.17687 11.2307Z" stroke="#BDBDBD" stroke-width="1.5" stroke-linecap="round" stroke-linejoin="round"/>
</svg>
