<svg width="85" height="85" viewBox="0 0 85 85" fill="none" xmlns="http://www.w3.org/2000/svg">
<path d="M71.6874 36.482C68.5055 20.2306 52.7335 9.62344 36.482 12.8053C20.2306 15.9873 9.62345 31.7592 12.8054 48.0107C15.9873 64.2621 31.7593 74.8693 48.0107 71.6873C64.2621 68.5054 74.8693 52.7334 71.6874 36.482ZM58.5942 55.9506L31.4157 37.6722L33.1565 46.5634C33.3928 47.7704 32.5878 48.9674 31.3807 49.2038C30.1736 49.4401 28.9767 48.6351 28.7403 47.428L25.9562 33.208C25.7198 32.0009 26.5248 30.8039 27.7319 30.5676L41.9519 27.7834C43.159 27.5471 44.356 28.3521 44.5923 29.5592C44.8286 30.7663 44.0236 31.9632 42.8166 32.1996L33.9254 33.9404L61.1039 52.2188C61.632 52.5739 61.9476 53.093 62.0571 53.6524C62.1666 54.2117 62.0701 54.8115 61.7149 55.3395C61.0283 56.3605 59.6151 56.6372 58.5942 55.9506Z" fill="white"/>
</svg>
