<svg width="21" height="21" viewBox="0 0 21 21" fill="none" xmlns="http://www.w3.org/2000/svg">
<path d="M19.8958 8.16083C18.8352 2.74369 13.5778 -0.792025 8.1607 0.268611C2.74355 1.32925 -0.792162 6.58658 0.268475 12.0037C1.32911 17.4209 6.58644 20.9566 12.0036 19.8959C17.4207 18.8353 20.9564 13.578 19.8958 8.16083ZM15.5314 14.6504L6.4719 8.55755L7.05218 11.5213C7.13096 11.9236 6.86262 12.3226 6.46026 12.4014C6.0579 12.4802 5.65891 12.2119 5.58013 11.8095L4.65207 7.0695C4.57329 6.66714 4.84163 6.26814 5.24399 6.18936L9.98399 5.26131C10.3864 5.18253 10.7853 5.45086 10.8641 5.85322C10.9429 6.25558 10.6746 6.65458 10.2722 6.73336L7.30848 7.31363L16.368 13.4064C16.544 13.5248 16.6492 13.6978 16.6857 13.8843C16.7222 14.0707 16.69 14.2707 16.5717 14.4467C16.3428 14.787 15.8717 14.8792 15.5314 14.6504Z" fill="white"/>
</svg>
