<svg width="22" height="17" viewBox="0 0 22 17" fill="none" xmlns="http://www.w3.org/2000/svg">
<path fill-rule="evenodd" clip-rule="evenodd" d="M3.5 0.25C1.84315 0.25 0.5 1.59315 0.5 3.25V13.75C0.5 15.4069 1.84315 16.75 3.5 16.75H18.5C20.1569 16.75 21.5 15.4069 21.5 13.75V3.25C21.5 1.59315 20.1569 0.25 18.5 0.25H3.5ZM7.625 3.25C6.38236 3.25 5.375 4.25736 5.375 5.5C5.375 6.74264 6.38236 7.75 7.625 7.75C8.86764 7.75 9.875 6.74264 9.875 5.5C9.875 4.25736 8.86764 3.25 7.625 3.25ZM3.75191 11.9528C4.3309 10.3765 5.84542 9.25 7.62496 9.25C9.40449 9.25 10.919 10.3765 11.498 11.9528C11.6271 12.3043 11.4771 12.6972 11.1466 12.8733C10.0958 13.4331 8.89627 13.75 7.62496 13.75C6.35364 13.75 5.15413 13.4331 4.10331 12.8733C3.77278 12.6972 3.62279 12.3043 3.75191 11.9528ZM14 4.75C13.5858 4.75 13.25 5.08579 13.25 5.5C13.25 5.91421 13.5858 6.25 14 6.25H17.75C18.1642 6.25 18.5 5.91421 18.5 5.5C18.5 5.08579 18.1642 4.75 17.75 4.75H14ZM13.25 8.5C13.25 8.08579 13.5858 7.75 14 7.75H17.75C18.1642 7.75 18.5 8.08579 18.5 8.5C18.5 8.91421 18.1642 9.25 17.75 9.25H14C13.5858 9.25 13.25 8.91421 13.25 8.5ZM14 10.75C13.5858 10.75 13.25 11.0858 13.25 11.5C13.25 11.9142 13.5858 12.25 14 12.25H17.75C18.1642 12.25 18.5 11.9142 18.5 11.5C18.5 11.0858 18.1642 10.75 17.75 10.75H14Z" fill="white"/>
</svg>
