<svg width="18" height="21" viewBox="0 0 18 21" fill="none" xmlns="http://www.w3.org/2000/svg">
<path d="M4.5 1.875C4.5 0.839466 5.33947 0 6.375 0H6.75C8.82107 0 10.5 1.67893 10.5 3.75V5.625C10.5 6.66053 11.3395 7.5 12.375 7.5H14.25C16.3211 7.5 18 9.17893 18 11.25V14.625C18 15.6605 17.1605 16.5 16.125 16.5H6.375C5.33947 16.5 4.5 15.6605 4.5 14.625V1.875Z" fill="white"/>
<path d="M12 3.75C12 2.43695 11.518 1.23648 10.7212 0.315905C14.1201 1.20377 16.7962 3.87988 17.6841 7.27881C16.7635 6.48204 15.5631 6 14.25 6H12.375C12.1679 6 12 5.83211 12 5.625V3.75Z" fill="white"/>
<path d="M1.875 4.5H3V14.625C3 16.489 4.51104 18 6.375 18H13.5V19.125C13.5 20.1605 12.6605 21 11.625 21H1.875C0.839466 21 0 20.1605 0 19.125V6.375C0 5.33947 0.839466 4.5 1.875 4.5Z" fill="white"/>
</svg>
