<svg width="80" height="80" viewBox="0 0 80 80" fill="none" xmlns="http://www.w3.org/2000/svg">
<rect width="80" height="80" fill="white"/>
<path d="M8.64862 63.7838V56.2163H23.7838V71.3514H8.64862V63.7838ZM21.6216 63.7838V58.3784H10.8108V69.1892H21.6216V63.7838ZM12.9729 63.7838V60.5406H19.4594V67.0271H12.9729V63.7838ZM28.1081 70.2703V69.1892H25.9459V64.8649H28.1081V58.3784H30.2702V56.2163H25.9459V54.0541H17.2973V51.8919H19.4594V49.7298H15.1351V54.0541H12.9729V51.8919H8.64862V49.7298H12.9729V45.4054H10.8108V47.5676H8.64862V43.2433H12.9729V45.4054H15.1351V47.5676H17.2973V45.4054H19.4594V47.5676H23.7838V45.4054H21.6216V43.2433H15.1351V41.0811H21.6216V38.919H15.1351V36.7568H12.9729V38.919H8.64862V32.4325H10.8108V34.5946H23.7838V32.4325H21.6216V30.2703H17.2973V32.4325H15.1351V30.2703H10.8108V25.946H15.1351V30.2703H17.2973V28.1081H21.6216V25.946H23.7838V28.1081H21.6216V30.2703H23.7838V32.4325H25.9459V28.1081H28.1081V25.946H25.9459V19.4595H30.2702V21.6217H32.4324V23.7838H30.2702V25.946H32.4324V38.919H28.1081V36.7568H25.9459V38.919H23.7838V41.0811H21.6216V43.2433H23.7838V45.4054H25.9459V47.5676H30.2702V45.4054H28.1081V43.2433H25.9459V41.0811H30.2702V45.4054H32.4324V41.0811H34.5946V45.4054H36.7567V38.919H38.9189V36.7568H41.0811V38.919H38.9189V41.0811H41.0811V43.2433H47.5675V41.0811H45.4054V38.919H43.2432V34.5946H41.0811V32.4325H43.2432V30.2703H45.4054V28.1081H43.2432V25.946H41.0811V30.2703H38.9189V28.1081H36.7567V30.2703H34.5946V28.1081H36.7567V25.946H34.5946V19.4595H32.4324V17.2973H34.5946V19.4595H36.7567V10.8108H38.9189V15.1352H43.2432V12.973H41.0811V8.64868H45.4054V10.8108H43.2432V12.973H47.5675V10.8108H49.7297V8.64868H54.054V15.1352H49.7297V12.973H47.5675V17.2973H49.7297V23.7838H51.8919V21.6217H54.054V32.4325H58.3784V30.2703H56.2162V25.946H60.5405V32.4325H64.8648V30.2703H62.7027V25.946H64.8648V30.2703H67.027V28.1081H71.3513V32.4325H69.1892V30.2703H67.027V32.4325H64.8648V38.919H67.027V41.0811H64.8648V43.2433H60.5405V45.4054H58.3784V47.5676H54.054V45.4054H51.8919V43.2433H49.7297V47.5676H51.8919V49.7298H58.3784V51.8919H62.7027V49.7298H60.5405V47.5676H62.7027V45.4054H64.8648V47.5676H67.027V49.7298H69.1892V45.4054H67.027V43.2433H71.3513V49.7298H69.1892V54.0541H71.3513V58.3784H69.1892V64.8649H71.3513V67.0271H64.8648V71.3514H58.3784V69.1892H62.7027V67.0271H58.3784V62.7027H56.2162V67.0271H54.054V69.1892H56.2162V71.3514H51.8919V64.8649H49.7297V69.1892H47.5675V67.0271H45.4054V58.3784H47.5675V64.8649H49.7297V58.3784H51.8919V54.0541H49.7297V51.8919H47.5675V49.7298H49.7297V47.5676H47.5675V45.4054H45.4054V54.0541H47.5675V56.2163H43.2432V60.5406H41.0811V64.8649H43.2432V67.0271H41.0811V69.1892H45.4054V71.3514H41.0811V69.1892H38.9189V67.0271H36.7567V71.3514H28.1081V70.2703ZM34.5946 67.0271V64.8649H36.7567V58.3784H32.4324V60.5406H34.5946V62.7027H30.2702V64.8649H28.1081V67.0271H30.2702V69.1892H34.5946V67.0271ZM64.8648 64.8649V62.7027H67.027V58.3784H69.1892V56.2163H67.027V49.7298H64.8648V56.2163H67.027V58.3784H64.8648V60.5406H62.7027V67.0271H64.8648V64.8649ZM54.054 63.7838V62.7027H51.8919V64.8649H54.054V63.7838ZM41.0811 59.4595V58.3784H38.9189V60.5406H41.0811V59.4595ZM60.5405 57.2973V54.0541H54.054V60.5406H60.5405V57.2973ZM56.2162 57.2973V56.2163H58.3784V58.3784H56.2162V57.2973ZM38.9189 55.1352V54.0541H43.2432V51.8919H38.9189V49.7298H36.7567V51.8919H38.9189V54.0541H34.5946V51.8919H32.4324V54.0541H30.2702V51.8919H28.1081V49.7298H25.9459V47.5676H23.7838V49.7298H21.6216V51.8919H23.7838V49.7298H25.9459V51.8919H28.1081V54.0541H30.2702V56.2163H38.9189V55.1352ZM32.4324 48.6487V47.5676H30.2702V49.7298H32.4324V48.6487ZM43.2432 47.5676V45.4054H38.9189V47.5676H41.0811V49.7298H43.2432V47.5676ZM56.2162 44.3244V43.2433H54.054V45.4054H56.2162V44.3244ZM60.5405 42.1622V41.0811H62.7027V34.5946H60.5405V36.7568H58.3784V38.919H56.2162V36.7568H51.8919V34.5946H49.7297V32.4325H51.8919V25.946H49.7297V23.7838H47.5675V21.6217H45.4054V23.7838H43.2432V17.2973H45.4054V19.4595H47.5675V17.2973H45.4054V15.1352H43.2432V17.2973H41.0811V23.7838H43.2432V25.946H45.4054V23.7838H47.5675V30.2703H45.4054V32.4325H43.2432V34.5946H45.4054V38.919H47.5675V36.7568H51.8919V38.919H54.054V41.0811H58.3784V43.2433H60.5405V42.1622ZM58.3784 40V38.919H60.5405V41.0811H58.3784V40ZM23.7838 37.8379V36.7568H25.9459V34.5946H23.7838V36.7568H21.6216V38.919H23.7838V37.8379ZM30.2702 33.5135V32.4325H28.1081V34.5946H30.2702V33.5135ZM30.2702 22.7027V21.6217H28.1081V23.7838H30.2702V22.7027ZM38.9189 21.6217V19.4595H36.7567V23.7838H38.9189V21.6217ZM51.8919 11.8919V10.8108H49.7297V12.973H51.8919V11.8919ZM69.1892 70.2703V69.1892H71.3513V71.3514H69.1892V70.2703ZM69.1892 38.919V36.7568H67.027V34.5946H69.1892V36.7568H71.3513V41.0811H69.1892V38.919ZM8.64862 16.2162V8.64868H23.7838V23.7838H8.64862V16.2162ZM21.6216 16.2162V10.8108H10.8108V21.6217H21.6216V16.2162ZM12.9729 16.2162V12.973H19.4594V19.4595H12.9729V16.2162ZM56.2162 16.2162V8.64868H71.3513V23.7838H56.2162V16.2162ZM69.1892 16.2162V10.8108H58.3784V21.6217H69.1892V16.2162ZM60.5405 16.2162V12.973H67.027V19.4595H60.5405V16.2162ZM25.9459 16.2162V15.1352H28.1081V17.2973H25.9459V16.2162ZM30.2702 14.0541V12.973H28.1081V8.64868H30.2702V10.8108H32.4324V8.64868H34.5946V10.8108H32.4324V15.1352H30.2702V14.0541Z" fill="black"/>
</svg>
