<svg width="120" height="120" viewBox="0 0 120 120" fill="none" xmlns="http://www.w3.org/2000/svg">
<path d="M51.25 50.15C51.25 52.85 52 53.25 53.7 53.85L56.25 54.75V46.25H54.75C52.85 46.25 51.25 48 51.25 50.15Z" fill="#202020"/>
<path d="M63.75 73.75H65.25C67.2 73.75 68.75 72 68.75 69.85C68.75 67.15 68 66.75 66.3 66.15L63.75 65.25V73.75Z" fill="#202020"/>
<path d="M97.9 27.4L87.65 37.65C86.9 38.4 85.95 38.75 85 38.75C84.05 38.75 83.1 38.4 82.35 37.65C80.9 36.2 80.9 33.8 82.35 32.35L92.6 22.1C83.8 14.6 72.45 10 60 10C32.4 10 10 32.4 10 60C10 87.6 32.4 110 60 110C87.6 110 110 87.6 110 60C110 47.55 105.4 36.2 97.9 27.4ZM68.75 59.1C71.95 60.25 76.25 62.55 76.25 69.9C76.25 76.15 71.3 81.3 65.25 81.3H63.75V82.55C63.75 84.6 62.05 86.3 60 86.3C57.95 86.3 56.25 84.6 56.25 82.55V81.3H55.85C49.2 81.3 43.75 75.7 43.75 68.8C43.75 66.7 45.45 65 47.5 65C49.55 65 51.25 66.7 51.25 68.75C51.25 71.5 53.3 73.75 55.85 73.75H56.25V62.65L51.25 60.9C48.05 59.75 43.75 57.45 43.75 50.1C43.75 43.85 48.7 38.7 54.75 38.7H56.25V37.5C56.25 35.45 57.95 33.75 60 33.75C62.05 33.75 63.75 35.45 63.75 37.5V38.75H64.15C70.8 38.75 76.25 44.35 76.25 51.25C76.25 53.3 74.55 55 72.5 55C70.45 55 68.75 53.3 68.75 51.25C68.75 48.5 66.7 46.25 64.15 46.25H63.75V57.35L68.75 59.1Z" fill="#202020"/>
<path d="M113.45 8.55C113.05 7.65 112.35 6.9 111.4 6.5C110.95 6.35 110.5 6.25 110 6.25H90C87.95 6.25 86.25 7.95 86.25 10C86.25 12.05 87.95 13.75 90 13.75H100.95L92.6 22.1C94.5 23.75 96.25 25.5 97.9 27.4L106.25 19.05V30C106.25 32.05 107.95 33.75 110 33.75C112.05 33.75 113.75 32.05 113.75 30V10C113.75 9.5 113.65 9.05 113.45 8.55Z" fill="#202020"/>
</svg>
