<svg width="120" height="120" viewBox="0 0 120 120" fill="none" xmlns="http://www.w3.org/2000/svg">
<path d="M59.7 11.05L47.65 39.1H35.6C33.6 39.1 31.65 39.25 29.75 39.65L34.75 27.65L34.95 27.2L35.25 26.4C35.4 26.05 35.5 25.75 35.65 25.5C41.45 12.05 47.95 7.84999 59.7 11.05Z" fill="#202020"/>
<path d="M93.65 40.45L93.55 40.4C90.55 39.55 87.5 39.1 84.4 39.1H53.1L64.35 12.95L64.5 12.6C65.2 12.85 65.95 13.2 66.7 13.45L77.75 18.1C83.9 20.65 88.2 23.3 90.85 26.5C91.3 27.1 91.7 27.65 92.1 28.3C92.55 29 92.9 29.7 93.1 30.45C93.3 30.9 93.45 31.3 93.55 31.75C94.3 34.3 94.35 37.2 93.65 40.45Z" fill="#202020"/>
<path d="M91.45 47.6C89.2 46.95 86.85 46.6 84.4 46.6H35.6C32.2 46.6 29 47.25 26 48.55C17.3 52.3 11.2 60.95 11.2 71V80.75C11.2 81.95 11.3 83.1 11.45 84.3C12.55 100.2 21.05 108.7 36.95 109.75C38.1 109.9 39.25 110 40.5 110H79.5C98 110 107.75 101.2 108.7 83.7C108.75 82.75 108.8 81.75 108.8 80.75V71C108.8 59.95 101.45 50.65 91.45 47.6ZM72.5 83.75H47.5C45.45 83.75 43.75 82.05 43.75 80C43.75 77.95 45.45 76.25 47.5 76.25H72.5C74.55 76.25 76.25 77.95 76.25 80C76.25 82.05 74.55 83.75 72.5 83.75Z" fill="#202020"/>
</svg>
