<svg width="36" height="26" viewBox="0 0 36 26" fill="none" xmlns="http://www.w3.org/2000/svg">
<path fill-rule="evenodd" clip-rule="evenodd" d="M0.5 3.625C0.5 1.89911 1.89911 0.5 3.625 0.5H32.375C34.1009 0.5 35.5 1.89911 35.5 3.625V8.66891C35.5 9.11512 35.2621 9.52749 34.8759 9.75092C33.7518 10.4012 33 11.6135 33 13C33 14.3865 33.7518 15.5988 34.8759 16.2491C35.2621 16.4725 35.5 16.8849 35.5 17.3311V22.375C35.5 24.1009 34.1009 25.5 32.375 25.5H3.625C1.89911 25.5 0.5 24.1009 0.5 22.375V17.3311C0.5 16.8849 0.737853 16.4725 1.12409 16.2491C2.24823 15.5988 3 14.3865 3 13C3 11.6135 2.24823 10.4012 1.12409 9.75092C0.737853 9.52749 0.5 9.11512 0.5 8.66891V3.625ZM25.5 1.75C26.1904 1.75 26.75 2.30964 26.75 3V4.25C26.75 4.94036 26.1904 5.5 25.5 5.5C24.8096 5.5 24.25 4.94036 24.25 4.25V3C24.25 2.30964 24.8096 1.75 25.5 1.75ZM26.75 9.25C26.75 8.55964 26.1904 8 25.5 8C24.8096 8 24.25 8.55964 24.25 9.25V10.5C24.25 11.1904 24.8096 11.75 25.5 11.75C26.1904 11.75 26.75 11.1904 26.75 10.5V9.25ZM25.5 14.25C26.1904 14.25 26.75 14.8096 26.75 15.5V16.75C26.75 17.4404 26.1904 18 25.5 18C24.8096 18 24.25 17.4404 24.25 16.75V15.5C24.25 14.8096 24.8096 14.25 25.5 14.25ZM26.75 21.75C26.75 21.0596 26.1904 20.5 25.5 20.5C24.8096 20.5 24.25 21.0596 24.25 21.75V23C24.25 23.6904 24.8096 24.25 25.5 24.25C26.1904 24.25 26.75 23.6904 26.75 23V21.75ZM8 13C8 12.3096 8.55964 11.75 9.25 11.75H18C18.6904 11.75 19.25 12.3096 19.25 13C19.25 13.6904 18.6904 14.25 18 14.25H9.25C8.55964 14.25 8 13.6904 8 13ZM9.25 16.75C8.55964 16.75 8 17.3096 8 18C8 18.6904 8.55964 19.25 9.25 19.25H14.25C14.9404 19.25 15.5 18.6904 15.5 18C15.5 17.3096 14.9404 16.75 14.25 16.75H9.25Z" fill="white"/>
</svg>
