<svg width="34" height="30" viewBox="0 0 34 30" fill="none" xmlns="http://www.w3.org/2000/svg">
<path d="M0.788452 4.37539C2.11063 3.20823 3.84752 2.5 5.74982 2.5H28.2498C30.1521 2.5 31.889 3.20823 33.2112 4.37539C32.9038 1.90876 30.7997 0 28.2498 0H5.74982C3.19992 0 1.09584 1.90876 0.788452 4.37539Z" fill="white"/>
<path d="M0.788452 9.37539C2.11063 8.20823 3.84752 7.5 5.74982 7.5H28.2498C30.1521 7.5 31.889 8.20823 33.2112 9.3754C32.9038 6.90876 30.7997 5 28.2498 5H5.74982C3.19992 5 1.09584 6.90876 0.788452 9.37539Z" fill="white"/>
<path d="M5.75 10C2.98858 10 0.75 12.2386 0.75 15V25C0.75 27.7614 2.98858 30 5.75 30H28.25C31.0114 30 33.25 27.7614 33.25 25V15C33.25 12.2386 31.0114 10 28.25 10H22C21.3096 10 20.75 10.5596 20.75 11.25C20.75 13.3211 19.0711 15 17 15C14.9289 15 13.25 13.3211 13.25 11.25C13.25 10.5596 12.6904 10 12 10H5.75Z" fill="white"/>
</svg>
