<svg width="37" height="35" viewBox="0 0 37 35" fill="none" xmlns="http://www.w3.org/2000/svg">
<path d="M13.625 3C11.8991 3 10.5 4.39911 10.5 6.125C10.5 7.85089 11.8991 9.25 13.625 9.25H16.75V16.75H3.625C1.89911 16.75 0.5 15.3509 0.5 13.625V12.375C0.5 10.6491 1.89911 9.25 3.625 9.25H8.94722C8.34892 8.35619 8 7.28134 8 6.125C8 3.0184 10.5184 0.5 13.625 0.5C15.392 0.5 16.9688 1.31479 18 2.58917C19.0312 1.31479 20.608 0.5 22.375 0.5C25.4816 0.5 28 3.0184 28 6.125C28 7.28134 27.6511 8.35619 27.0528 9.25H33.625C35.3509 9.25 36.75 10.6491 36.75 12.375V13.625C36.75 15.3509 35.3509 16.75 33.625 16.75H19.25V9.25H22.375C24.1009 9.25 25.5 7.85089 25.5 6.125C25.5 4.39911 24.1009 3 22.375 3C20.6491 3 19.25 4.39911 19.25 6.125V9.25H16.75V6.125C16.75 4.39911 15.3509 3 13.625 3Z" fill="white"/>
<path d="M16.75 19.25H3V30.5C3 32.5711 4.67893 34.25 6.75 34.25H16.75V19.25Z" fill="white"/>
<path d="M19.25 19.25V34.25H30.5C32.5711 34.25 34.25 32.5711 34.25 30.5V19.25H19.25Z" fill="white"/>
</svg>
