<svg width="36" height="32" viewBox="0 0 36 32" fill="none" xmlns="http://www.w3.org/2000/svg">
<path d="M18 7.5C15.9289 7.5 14.25 9.17893 14.25 11.25C14.25 13.3211 15.9289 15 18 15C20.0711 15 21.75 13.3211 21.75 11.25C21.75 9.17893 20.0711 7.5 18 7.5Z" fill="white"/>
<path fill-rule="evenodd" clip-rule="evenodd" d="M0.5 3.125C0.5 1.39911 1.89911 0 3.625 0H32.375C34.1009 0 35.5 1.39911 35.5 3.125V19.375C35.5 21.1009 34.1009 22.5 32.375 22.5H3.625C1.89911 22.5 0.5 21.1009 0.5 19.375V3.125ZM11.75 11.25C11.75 7.79822 14.5482 5 18 5C21.4518 5 24.25 7.79822 24.25 11.25C24.25 14.7018 21.4518 17.5 18 17.5C14.5482 17.5 11.75 14.7018 11.75 11.25ZM29.25 10C28.5596 10 28 10.5596 28 11.25V11.2625C28 11.9529 28.5596 12.5125 29.25 12.5125H29.2625C29.9529 12.5125 30.5125 11.9529 30.5125 11.2625V11.25C30.5125 10.5596 29.9529 10 29.2625 10H29.25ZM5.5 11.25C5.5 10.5596 6.05964 10 6.75 10H6.7625C7.45286 10 8.0125 10.5596 8.0125 11.25V11.2625C8.0125 11.9529 7.45286 12.5125 6.7625 12.5125H6.75C6.05964 12.5125 5.5 11.9529 5.5 11.2625V11.25Z" fill="white"/>
<path d="M1.75 25C1.05964 25 0.5 25.5596 0.5 26.25C0.5 26.9404 1.05964 27.5 1.75 27.5C10.7501 27.5 19.4671 28.7037 27.7496 30.9582C29.7339 31.4983 31.75 30.028 31.75 27.9252V26.25C31.75 25.5596 31.1904 25 30.5 25H1.75Z" fill="white"/>
</svg>
