<svg width="28" height="36" viewBox="0 0 28 36" fill="none" xmlns="http://www.w3.org/2000/svg">
<path fill-rule="evenodd" clip-rule="evenodd" d="M3.375 0.5H9C12.4518 0.5 15.25 3.29822 15.25 6.75V9.875C15.25 11.6009 16.6491 13 18.375 13H21.5C24.9518 13 27.75 15.7982 27.75 19.25V32.375C27.75 34.1009 26.3509 35.5 24.625 35.5H3.375C1.64911 35.5 0.25 34.1009 0.25 32.375V3.625C0.25 1.89911 1.64911 0.5 3.375 0.5ZM10.25 26.75C10.25 26.0596 9.69036 25.5 9 25.5C8.30964 25.5 7.75 26.0596 7.75 26.75V28C7.75 28.6904 8.30964 29.25 9 29.25C9.69036 29.25 10.25 28.6904 10.25 28V26.75ZM14 21.75C14.6904 21.75 15.25 22.3096 15.25 23V28C15.25 28.6904 14.6904 29.25 14 29.25C13.3096 29.25 12.75 28.6904 12.75 28V23C12.75 22.3096 13.3096 21.75 14 21.75ZM20.25 19.25C20.25 18.5596 19.6904 18 19 18C18.3096 18 17.75 18.5596 17.75 19.25V28C17.75 28.6904 18.3096 29.25 19 29.25C19.6904 29.25 20.25 28.6904 20.25 28V19.25Z" fill="white"/>
<path d="M17.75 6.75C17.75 4.56158 16.9466 2.5608 15.6187 1.02651C21.2835 2.50629 25.7437 6.96646 27.2235 12.6313C25.6892 11.3034 23.6884 10.5 21.5 10.5H18.375C18.0298 10.5 17.75 10.2202 17.75 9.875V6.75Z" fill="white"/>
</svg>
