<svg width="34" height="36" viewBox="0 0 34 36" fill="none" xmlns="http://www.w3.org/2000/svg">
<path fill-rule="evenodd" clip-rule="evenodd" d="M9.5 8V9.25H6.18812C4.58887 9.25 3.2477 10.4574 3.08029 12.0479L0.975025 32.0479C0.780802 33.893 2.22754 35.5 4.08285 35.5H29.9174C31.7727 35.5 33.2195 33.893 33.0252 32.0479L30.92 12.0479C30.7525 10.4574 29.4114 9.25 27.8121 9.25H24.5V8C24.5 3.85786 21.1421 0.5 17 0.5C12.8579 0.5 9.5 3.85786 9.5 8ZM17 3C14.2386 3 12 5.23858 12 8V9.25H22V8C22 5.23858 19.7614 3 17 3ZM12 16.75C12 19.5114 14.2386 21.75 17 21.75C19.7614 21.75 22 19.5114 22 16.75V15.5C22 14.8096 22.5596 14.25 23.25 14.25C23.9404 14.25 24.5 14.8096 24.5 15.5V16.75C24.5 20.8921 21.1421 24.25 17 24.25C12.8579 24.25 9.5 20.8921 9.5 16.75V15.5C9.5 14.8096 10.0596 14.25 10.75 14.25C11.4404 14.25 12 14.8096 12 15.5V16.75Z" fill="white"/>
</svg>
