<svg width="120" height="49" viewBox="0 0 120 49" fill="none" xmlns="http://www.w3.org/2000/svg">
<g clip-path="url(#clip0_2_565)">
<path d="M0 13.7793H8.79751C10.4732 13.7793 11.73 14.1978 12.661 14.8953C13.685 15.7323 14.2436 16.9414 14.2436 18.4294C14.2436 20.15 13.5454 21.2195 12.149 21.8705V21.9635C14.0109 22.568 15.0815 24.2421 15.0815 26.2416C15.0815 28.1482 14.3367 29.6362 13.1265 30.5662C12.1024 31.3103 10.7991 31.6358 9.03025 31.6358H0V13.7793ZM7.91311 20.7545C8.84407 20.7545 9.54228 20.243 9.54228 19.1734C9.54228 18.1504 8.84406 17.6389 7.86656 17.6389H4.84096V20.708H7.91311V20.7545ZM8.33204 27.6832C9.40264 27.6832 10.1939 27.0321 10.1939 25.8696C10.1939 24.6141 9.35609 24.0561 8.33204 24.0561H4.88751V27.7297H8.33204V27.6832ZM15.8728 13.7793H20.481V31.6823H15.8728V13.7793ZM21.4119 25.3116C21.4119 21.266 24.0186 18.5689 28.0683 18.5689C32.1179 18.5689 34.678 21.3125 34.678 25.3116C34.678 29.3572 32.1179 32.0543 28.0683 32.0543C24.0186 32.0543 21.4119 29.3572 21.4119 25.3116ZM30.0698 25.3116C30.0698 23.0795 29.3716 21.6845 27.9752 21.6845C26.5787 21.6845 25.9271 23.0795 25.9271 25.3116C25.9271 27.5437 26.5787 28.9852 27.9752 28.9852C29.3716 28.9387 30.0698 27.5437 30.0698 25.3116ZM35.1901 25.3116C35.1901 21.266 37.7967 18.5689 41.8464 18.5689C45.896 18.5689 48.4096 21.266 48.4096 25.3116C48.4096 29.3572 45.8495 32.0543 41.7998 32.0543C37.7967 32.0543 35.1901 29.3572 35.1901 25.3116ZM43.8479 25.3116C43.8479 23.0795 43.1497 21.6845 41.7533 21.6845C40.3569 21.6845 39.7052 23.0795 39.7052 25.3116C39.7052 27.5437 40.3569 28.9852 41.7533 28.9852C43.1497 28.9387 43.8479 27.5437 43.8479 25.3116ZM49.3406 18.8944H53.623V20.801H53.7161C54.5539 19.3129 55.7176 18.5224 57.5795 18.5224C59.2087 18.5224 60.4189 19.3129 61.0241 20.708H61.1171C62.1412 19.0339 63.4911 18.5224 65.0737 18.5224C68.0528 18.5224 69.3095 20.708 69.3095 23.6376V31.6358H64.841V24.4281C64.841 23.126 64.422 22.289 63.3049 22.289C62.1877 22.289 61.6292 23.312 61.6292 24.7071V31.6358H57.1606V24.4281C57.1606 23.126 56.7417 22.289 55.6245 22.289C54.5074 22.289 53.9488 23.312 53.9488 24.7071V31.6358H49.3406V18.8944ZM74.9418 29.9617H74.8953V31.6358H70.6129V13.7793H75.0815V20.1965H75.1746C76.0124 19.0804 77.1761 18.4759 78.8053 18.4759C82.0171 18.4759 83.879 21.359 83.879 25.2186C83.879 29.5432 81.8774 32.0543 78.526 32.0543C77.1296 32.0543 75.6866 31.4033 74.9418 29.9617ZM79.2708 25.1721C79.2708 23.126 78.526 21.7775 77.1761 21.7775C75.7797 21.7775 74.9418 23.126 74.9418 25.1721C74.9418 27.2181 75.8262 28.5667 77.1761 28.5667C78.526 28.5667 79.2708 27.2646 79.2708 25.1721ZM84.391 25.2651C84.391 21.266 87.0442 18.5224 90.8611 18.5224C92.7696 18.5224 94.2126 19.1269 95.3297 20.1965C96.8192 21.638 97.4709 23.8701 97.4244 26.4741H88.8596C89.0458 28.0552 89.7905 28.8922 91.1404 28.8922C91.9317 28.8922 92.63 28.5202 92.9092 27.6832H97.2382C96.4934 30.6127 94.2126 32.0543 91.0008 32.0543C87.0442 32.0078 84.391 29.3107 84.391 25.2651ZM88.8596 23.9166H92.9558C92.8627 22.382 92.0248 21.5915 90.9542 21.5915C89.6974 21.545 88.9992 22.4285 88.8596 23.9166ZM102.498 21.08H102.591C103.522 19.3129 104.732 18.6154 106.268 18.6154C106.641 18.6154 106.874 18.6619 107.013 18.7549V22.661H106.92C104.267 22.196 102.731 23.4515 102.731 26.3346V31.6823H98.2157V18.8944H102.498V21.08ZM107.479 31.6823H111.808C111.994 32.2403 112.552 32.7518 113.623 32.7518C115.066 32.7518 115.578 31.8683 115.578 30.5197V29.5897H115.485C114.787 30.4267 113.809 31.0312 112.413 31.0312C109.666 31.0312 107.246 28.9852 107.246 24.9861C107.246 21.3125 109.201 18.4759 112.18 18.4759C113.902 18.4759 114.926 19.1734 115.625 20.243H115.718V18.8479H120V29.9152C120 31.9613 119.302 33.5423 118.231 34.4723C117.114 35.4489 115.531 35.8674 113.716 35.8674C110.272 35.9139 107.898 34.5188 107.479 31.6823ZM115.764 24.8001C115.764 23.219 115.019 21.917 113.716 21.917C112.459 21.917 111.668 23.033 111.668 24.8001C111.668 26.5206 112.459 27.7297 113.716 27.7297C114.973 27.7297 115.764 26.4741 115.764 24.8001Z" fill="white"/>
</g>
<defs>
<clipPath id="clip0_2_565">
<rect width="120" height="48" fill="white" transform="translate(0 0.84668)"/>
</clipPath>
</defs>
</svg>
