<svg width="100" height="47" viewBox="0 0 100 47" fill="none" xmlns="http://www.w3.org/2000/svg">
<g clip-path="url(#clip0_2_577)">
<path d="M31.6757 0.869856C31.6757 0.849121 23.0731 0.869856 23.0731 0.869856C10.3394 0.869856 0.0163879 11.1571 0.0163879 23.8467C0.0163879 36.5363 10.3394 46.8235 23.0731 46.8235L39.248 46.81C43.3115 46.81 46.6057 43.5529 46.6057 39.5033L46.6142 25.4892L57.794 43.0616C59.306 45.3419 61.9014 46.8463 64.8495 46.8463C69.5165 46.8463 73.3001 43.076 73.3001 38.425L73.2976 25.489L84.4774 43.0614C85.9894 45.3418 88.5848 46.8462 91.5329 46.8462C96.1998 46.8462 99.9835 43.0758 99.9835 38.4249L99.981 0.849121H94.2285V38.4253C94.2285 39.9088 93.0217 41.1115 91.533 41.1115C90.6026 41.1115 89.7823 40.6419 89.298 39.9272L69.399 8.69203C69.2757 8.51329 69.0982 8.37856 68.8926 8.30753C68.6869 8.23649 68.4639 8.2329 68.256 8.29726C68.0481 8.36162 67.8664 8.49057 67.7374 8.66524C67.6083 8.83991 67.5387 9.05114 67.5388 9.26805L67.5451 38.4255C67.5451 39.909 66.3383 41.1116 64.8497 41.1116C63.9193 41.1116 63.0991 40.6421 62.6146 39.9274L42.7156 8.69203C42.5923 8.51333 42.4148 8.37862 42.2092 8.30761C42.0035 8.23661 41.7805 8.23302 41.5726 8.29737C41.3648 8.36173 41.183 8.49065 41.054 8.6653C40.9249 8.83994 40.8553 9.05115 40.8553 9.26805L40.8508 39.5035C40.8508 40.3857 40.1334 41.1006 39.2481 41.1006L23.0733 41.0885C13.5179 41.0884 5.7715 33.3688 5.7715 23.8467C5.7715 14.3246 13.5179 6.60488 23.0731 6.60488L31.6757 6.59855V0.869856Z" fill="white"/>
<path d="M32.603 33.7237C32.8204 33.7237 33.0289 33.6377 33.1826 33.4845C33.3363 33.3314 33.4226 33.1236 33.4226 32.907L33.4248 9.26781C33.4247 4.61718 37.2081 0.84668 41.8751 0.84668C44.8337 0.84668 47.4373 2.36194 48.947 4.65615L60.088 22.0725L60.108 9.26796C60.108 4.61718 63.8914 0.84668 68.5585 0.84668C71.517 0.84668 74.1206 2.36194 75.6303 4.65615L86.7712 22.0725V0.84918H92.5632L92.5529 38.4254C92.5528 38.6387 92.4854 38.8466 92.3602 39.0196C92.235 39.1926 92.0584 39.322 91.8554 39.3894C91.6523 39.4569 91.4331 39.4589 91.2288 39.3953C91.0245 39.3317 90.8454 39.2057 90.717 39.0351L70.7935 7.76608C70.3092 7.05169 69.4889 6.58185 68.5585 6.58185C67.0698 6.58185 65.863 7.78447 65.863 9.26796L65.8695 38.4254C65.8694 38.6387 65.802 38.8465 65.6768 39.0195C65.5516 39.1925 65.3749 39.3219 65.1719 39.3893C64.9688 39.4567 64.7496 39.4588 64.5453 39.3952C64.341 39.3317 64.1619 39.2057 64.0335 39.0351L44.1103 7.76608C43.6258 7.05169 42.8057 6.58185 41.8751 6.58185C40.3866 6.58185 39.1798 7.78447 39.1798 9.26796L39.1919 38.6564C39.1919 38.873 39.1055 39.0808 38.9518 39.234C38.7981 39.3871 38.5897 39.4732 38.3723 39.4732L23.0731 39.4701C14.4431 39.4701 7.44698 32.4469 7.44698 23.8469C7.44698 15.2468 14.4431 8.22343 23.0731 8.22343C23.0731 8.22343 31.6757 8.19004 31.6757 8.22343V14.0164L23.0731 14.0099C17.6216 14.0099 13.2021 18.4141 13.2021 23.8469C13.2021 29.2794 17.6216 33.7349 23.0731 33.7349L32.603 33.7237Z" fill="white"/>
</g>
<defs>
<clipPath id="clip0_2_577">
<rect width="100" height="46" fill="white" transform="translate(0 0.84668)"/>
</clipPath>
</defs>
</svg>
