<svg width="120" height="32" viewBox="0 0 120 32" fill="none" xmlns="http://www.w3.org/2000/svg">
<path d="M11.5527 3.23516H14.1814C15.7823 3.00254 17.4172 3.20706 18.9085 3.8265C20.7795 4.93676 22.1366 6.72417 22.6902 8.80743C23.0822 9.89914 23.0822 9.89914 24.0277 9.51249H24.7656V0.86979H0.0230617V2.39363H1.03767C1.47857 2.39062 1.91455 2.48508 2.31359 2.67006C2.71263 2.85505 3.06458 3.12586 3.34358 3.4626C4.28901 4.9637 4.45043 6.64675 4.45043 15.4032C4.45043 24.7054 4.24289 26.9798 3.34358 28.1398C3.12157 28.438 2.83413 28.6829 2.50272 28.8561C2.17131 29.0294 1.8045 29.1266 1.42967 29.1405C0.0230618 29.3907 0.0230617 29.368 0.0230617 29.982C-0.054725 30.1874 -0.054725 30.4135 0.0230617 30.6189H15.6341C15.7374 30.418 15.7913 30.1959 15.7913 29.9707C15.7913 29.7454 15.7374 29.5233 15.6341 29.3225C15.256 29.2187 14.8707 29.1427 14.4812 29.095C14.0598 29.0456 13.6433 28.9619 13.236 28.8448C12.6526 28.4248 12.1905 27.8618 11.8953 27.2117C11.6 26.5615 11.4819 25.8466 11.5527 25.1376C11.3221 23.6365 11.2068 20.8845 11.2068 18.6101V16.8133H12.1291C13.2783 16.7786 14.4268 16.9011 15.5419 17.1772C16.0761 17.5028 16.5308 17.9407 16.8736 18.4597C17.2164 18.9787 17.4388 19.5659 17.525 20.1794L17.7325 20.8845H19.1391V10.8089H17.8478L17.6403 11.7869C17.553 12.4143 17.3176 13.0128 16.9532 13.5342C16.5887 14.0556 16.1054 14.4854 15.5419 14.7891C14.9962 14.9493 14.4213 14.9881 13.8586 14.9028H11.2068V12.4465C11.2068 9.89914 11.3451 4.53157 11.4374 3.69004L11.5527 3.23516ZM119.47 21.2711C118.38 19.5408 116.68 18.269 114.696 17.7003C113.176 17.2316 111.771 16.4571 110.569 15.4259C110.298 15.1679 110.096 14.8486 109.979 14.4958C109.863 14.1429 109.836 13.7673 109.9 13.4017C109.902 12.6846 110.192 11.9974 110.707 11.4912C111.056 11.1306 111.498 10.8703 111.985 10.7381C112.473 10.606 112.987 10.6068 113.474 10.7407C114.482 11.024 115.394 11.5711 116.112 12.3238C116.831 13.0766 117.33 14.007 117.556 15.0165C117.925 16.04 117.971 16.04 118.64 15.7671L119.055 15.6079V9.94463L118.755 9.80816C116.485 9.02174 114.077 8.6968 111.676 8.85292C109.608 8.90459 107.634 9.71566 106.141 11.1273C105.464 11.7525 104.934 12.5162 104.587 13.3648C104.241 14.2134 104.087 15.1264 104.135 16.04C104.148 17.4368 104.71 18.774 105.703 19.77C106.801 20.8344 108.147 21.6156 109.623 22.0444C113.198 23.4318 114.235 24.3188 114.235 25.9336C114.251 26.6146 114.031 27.2805 113.612 27.8219C113.193 28.3633 112.599 28.7481 111.929 28.9131C111.124 29.0875 110.29 29.0875 109.485 28.9131C108.431 28.5095 107.49 27.8635 106.74 27.0288C105.99 26.1941 105.452 25.1948 105.173 24.1141L104.873 23.3863H104.458C104.26 23.4008 104.065 23.4469 103.882 23.5228H103.651V29.982H104.043C105.601 30.4932 107.208 30.8438 108.839 31.0283H111.145C112.145 31.1007 113.151 31.0084 114.12 30.7553C115.351 30.5314 116.5 29.9936 117.455 29.1957C118.41 28.3977 119.136 27.3672 119.562 26.2065C119.837 25.5583 119.978 24.8624 119.977 24.1596C120.068 23.1695 119.893 22.1733 119.47 21.2711ZM97.7479 9.51249C96.3661 8.94028 94.8773 8.6627 93.379 8.69798C91.8808 8.73326 90.4071 9.08059 89.0546 9.71719C87.7832 10.3306 86.6564 11.2 85.7469 12.2695C84.8373 13.339 84.1652 14.5847 83.774 15.9263C83.2752 17.3897 83.0639 18.9336 83.1514 20.4751C83.1349 21.3138 83.2044 22.152 83.3589 22.9769C83.7313 25.0052 84.7241 26.8726 86.2039 28.3281C87.6838 29.7836 89.5797 30.7576 91.6372 31.1192C92.977 31.2857 94.3327 31.2857 95.6726 31.1192C97.0629 30.8775 98.3935 30.3757 99.5926 29.6409C100.585 29.0924 101.424 28.3112 102.037 27.3665C101.998 27.2183 101.928 27.0794 101.833 26.9582C101.738 26.8371 101.619 26.7361 101.483 26.6614C101.22 26.7554 100.972 26.8856 100.746 27.0481C99.5986 27.7936 98.2443 28.1673 96.8716 28.117C95.9605 28.1778 95.0472 28.0379 94.1977 27.7074C93.3482 27.377 92.5838 26.8643 91.96 26.2065C91.4775 25.7645 91.0792 25.2407 90.784 24.66C90.0675 23.246 89.6814 21.6917 89.6541 20.1112V19.2242H102.429V18.7693C102.457 18.3148 102.457 17.8591 102.429 17.4046C102.424 15.7987 101.989 14.2226 101.167 12.8364C100.344 11.4502 99.1649 10.3034 97.7479 9.51249ZM91.3144 17.3819H89.7002V16.04C90.2306 12.6057 91.545 10.5587 93.1591 10.5587C94.7732 10.5587 95.465 12.5829 95.7648 16.2902V17.3364H94.3812L91.3144 17.3819ZM58.1553 8.76194C57.3585 8.73146 56.5664 8.89553 55.8493 9.23956C54.2909 9.98608 53.032 11.2277 52.2752 12.7649L51.9754 13.3107V8.76194H51.8601C51.5834 8.76194 43.0515 10.445 42.7748 10.5587C42.4981 10.6724 42.5903 10.6952 42.5903 11.1046C42.5903 11.514 42.5903 11.5822 42.7748 11.6049L43.6741 11.7869C43.926 11.793 44.1731 11.8555 44.3969 11.9698C44.6206 12.0841 44.815 12.2471 44.9654 12.4465C45.5419 13.197 45.6572 14.5162 45.6572 20.1339C45.7711 22.663 45.6631 25.197 45.3344 27.7076C45.257 28.0862 45.0624 28.4318 44.7774 28.6966C44.4924 28.9614 44.131 29.1324 43.7433 29.186L42.9593 29.3452H42.6595V29.982C42.5758 30.1942 42.5758 30.4295 42.6595 30.6416H55.5496V29.982C55.5943 29.7644 55.5943 29.5401 55.5496 29.3225C54.7735 29.2926 54.0017 29.1937 53.2437 29.0268C52.8309 28.8138 52.4931 28.4825 52.275 28.0765C52.0568 27.6705 51.9685 27.2089 52.0215 26.7524C51.8371 25.4333 51.7448 21.5668 51.7909 18.6101C51.8371 15.6534 51.7909 15.4714 52.0446 15.2667C52.8162 14.6832 53.771 14.3853 54.7425 14.4252C55.6582 14.4449 56.5573 14.6705 57.3713 15.0848C57.6534 15.2393 57.9561 15.3541 58.2706 15.4259C58.2706 15.4259 60.5765 9.92188 60.5765 9.6717C60.2814 9.33348 59.9055 9.07318 59.4827 8.91433C59.0599 8.75548 58.6037 8.7031 58.1553 8.76194ZM42.6134 18.3144C42.5329 16.6891 42.0598 15.1064 41.2335 13.6979C40.4073 12.2895 39.2517 11.0963 37.8632 10.2176C36.2131 9.33952 34.3772 8.85538 32.503 8.80404C30.6288 8.75269 28.7685 9.13555 27.0715 9.92188C24.6722 11.1698 22.8606 13.2911 22.0215 15.8353C21.1549 18.6838 21.1549 21.7205 22.0215 24.569C22.4759 26.1257 23.325 27.5426 24.4889 28.6856C25.9383 30.0807 27.8074 30.9745 29.8155 31.233C31.1046 31.3393 32.4004 31.3393 33.6895 31.233C34.1638 31.1618 34.6335 31.063 35.0961 30.9373C36.973 30.4194 38.6616 29.385 39.9643 27.9552C41.267 26.5253 42.1298 24.7591 42.452 22.8632C42.6822 21.358 42.7363 19.8318 42.6134 18.3144ZM33.0208 29.6864C30.7148 30.3687 28.9854 28.1625 28.4089 23.5228C28.1972 21.0936 28.1972 18.6511 28.4089 16.222C28.8701 12.4919 30.0461 10.6042 31.8678 10.6042C32.2353 10.5817 32.603 10.6464 32.94 10.7928C33.2769 10.9392 33.5735 11.1631 33.8048 11.4457C35.3497 12.9696 36.1107 15.9945 36.1107 20.5433C36.3025 23.1177 35.8923 25.7011 34.9116 28.0943C34.4786 28.7923 33.8086 29.3161 33.0208 29.5727V29.6864ZM74.5273 9.21682C73.8766 9.13424 73.2179 9.13424 72.5673 9.21682C71.3183 9.21577 70.0836 9.47949 68.947 9.99011L68.2321 10.2858V5.35035C68.3571 3.68473 68.3571 2.01229 68.2321 0.34668C67.9554 0.34668 59.1468 2.00699 59.0085 2.07522C58.9404 2.24314 58.9404 2.43041 59.0085 2.59833C59.0085 3.07595 59.0085 3.05321 60.0461 3.28065C60.3375 3.34509 60.6173 3.45243 60.8763 3.59906C61.3264 4.01655 61.6259 4.56759 61.7294 5.1684C61.992 6.89926 62.077 8.65182 61.9831 10.3995V30.3687L62.6057 30.5052C63.5281 30.7098 66.1338 31.142 66.9869 31.233C68.6906 31.3666 70.4024 31.3666 72.1061 31.233C73.9971 31.0424 75.7996 30.3466 77.3193 29.2204C78.839 28.0942 80.0183 26.5803 80.7302 24.8419C81.1546 23.7262 81.4486 22.5663 81.6065 21.3848C81.7437 19.7845 81.6895 18.1737 81.445 16.5859C81.1977 14.806 80.4012 13.1442 79.1637 11.8259C77.9262 10.5077 76.3075 9.59681 74.5273 9.21682ZM68.4858 29.2997C68.4858 29.0041 68.2552 19.0422 68.3013 15.062V11.9461L68.97 11.7869C69.4212 11.7231 69.8793 11.7231 70.3305 11.7869C70.8295 11.7368 71.3314 11.8486 71.7602 12.1053C72.6213 12.6915 73.3364 13.4627 73.8517 14.3609C74.3669 15.2592 74.6689 16.261 74.7348 17.2909C74.9028 18.9471 74.9028 20.6157 74.7348 22.2718C74.5968 24.679 73.6565 26.9737 72.06 28.7994C71.6068 29.2239 71.0378 29.5085 70.4228 29.6181C69.9574 29.698 69.4815 29.698 69.0161 29.6181C68.578 29.6181 68.578 29.4817 68.578 29.2997H68.4858Z" fill="white"/>
</svg>
