<svg width="80" height="61" viewBox="0 0 80 61" fill="none" xmlns="http://www.w3.org/2000/svg">
<g clip-path="url(#clip0_2_556)">
<path d="M14.0147 51.9124C13.7199 50.4952 12.5482 50.1178 11.2348 49.9965C6.9961 49.6075 6.24535 52.75 6.24535 54.0767C6.24535 56.345 6.91462 58.2224 11.0738 58.2224C11.842 58.2224 13.9604 57.4387 13.9604 56.1659H19.9451C19.7026 59.9419 13.3028 60.8469 10.5112 60.8469C4.72833 60.8469 -0.224296 59.7782 0.0162548 54.1287C0.186968 50.0947 4.02802 47.2641 11.6733 47.4393C15.9333 47.5395 20.0285 48.8546 20.044 51.9124H14.0147ZM73.9564 51.9124C73.6635 50.4952 72.4898 50.1178 71.1784 49.9965C66.9397 49.6075 66.189 52.75 66.189 54.0767C66.189 56.345 66.8563 58.2224 71.0194 58.2224C71.7876 58.2224 73.904 57.4387 73.904 56.1659H79.8887C79.6462 59.9419 73.2483 60.8469 70.4549 60.8469C64.6719 60.8469 59.7213 59.7782 59.9599 54.1287C60.1306 50.0947 63.9736 47.2641 71.6188 47.4393C75.8789 47.5395 79.9721 48.8546 79.9896 51.9124H73.9564ZM21.1149 47.7108H28.8842L35.513 56.9284H35.5653V47.7108H40.5451V60.5099H33.1016L26.147 51.2904H26.0946V60.5099H21.1149V47.7108ZM42.0835 47.7108H51.5193C56.0548 47.7108 58.7222 48.9663 58.7222 50.8649C58.7222 51.9856 57.6048 53.37 55.1159 53.7782V53.8148C58.1131 53.992 59.2188 55.8713 59.2188 56.9978C59.2188 59.2545 56.6193 60.5099 51.5464 60.5099H42.0835V47.7108ZM47.5444 52.6826H49.1099C51.5193 52.6826 52.7977 52.4958 52.7977 51.5042C52.7977 50.4393 51.7327 50.087 49.5638 50.087H47.5424L47.5444 52.6826ZM47.5444 57.8257H49.1099C52.014 57.8257 53.079 57.5234 53.079 56.5318C53.079 55.4669 51.7346 55.1126 49.5658 55.1126H47.5444V57.8257Z" fill="white"/>
<path d="M24.3041 17.7065L35.1425 42.3073L12.7829 27.1109C7.17264 23.4254 8.30943 17.1058 11.4191 14.3214C15.815 10.6359 22.0305 11.9145 24.3041 17.7065Z" fill="white"/>
<path d="M39.1581 11.915L35.2181 39.4483L24.0015 13.2705C21.5766 6.72561 27.0316 2.43742 30.6709 2.36232C34.8398 1.90982 40.0679 5.06964 39.1581 11.915Z" fill="white"/>
<path d="M56.2119 13.1953L45.071 39.4501L41.5093 15.7524C41.2047 12.142 43.4802 12.0669 44.3144 11.3891C44.1631 10.8615 43.0263 10.8615 43.0263 10.8615H40.904C40.677 4.69207 45.5268 1.98475 49.4688 2.28514C53.7114 2.43726 58.4855 7.32622 56.2119 13.1953Z" fill="white"/>
<path d="M67.5818 26.9609L45.2242 42.2343L55.758 17.934C58.9414 10.2607 66.3694 11.7645 69.0212 14.699C71.9001 17.5565 72.7343 23.3505 67.5818 26.9609Z" fill="white"/>
<path d="M69.9291 44.9415H44.0855L65.0793 30.421C70.2337 27.0359 75.6907 30.1206 77.1301 34.559C78.6471 39.525 75.2348 44.9415 69.9291 44.9415Z" fill="white"/>
<path d="M3.00568 34.2588C4.97664 29.1426 10.4336 27.3365 15.2834 30.4212L36.2792 44.9417H10.8119C5.50624 44.9417 1.33928 40.1259 3.00568 34.2588Z" fill="white"/>
</g>
<defs>
<clipPath id="clip0_2_556">
<rect width="80" height="60" fill="white" transform="translate(0 0.84668)"/>
</clipPath>
</defs>
</svg>
