<svg width="120" height="35" viewBox="0 0 120 35" fill="none" xmlns="http://www.w3.org/2000/svg">
<g clip-path="url(#clip0_2_567)">
<path d="M54.6468 23.5098H52.6723C52.4952 23.5098 52.4292 23.3483 52.3492 23.1915L50.0196 19.3226H49.662C49.2398 19.3226 47.9326 19.2773 47.5607 19.257V23.1915C47.5607 23.3658 47.43 23.5098 47.2514 23.5098H45.6345C45.5491 23.5093 45.4673 23.4756 45.4069 23.416C45.3465 23.3564 45.3124 23.2758 45.3119 23.1915V12.7351C45.3119 12.4149 45.5033 12.3035 45.8288 12.2563C46.6713 12.1283 48.4792 12.0494 49.6615 12.0494C52.1516 12.0494 54.452 12.9273 54.452 15.6553V15.7993C54.452 17.489 53.5952 18.4136 52.2693 18.9212L54.8067 23.1915C54.8402 23.2397 54.8402 23.2845 54.8402 23.3204C54.8407 23.4286 54.7761 23.5098 54.6468 23.5098ZM52.2205 15.6553C52.2205 14.4587 51.2794 13.9487 49.662 13.9487C49.3212 13.9487 47.8498 13.9803 47.5607 14.0115V17.472C47.8167 17.4875 49.3839 17.5201 49.662 17.5201C51.3259 17.5201 52.2205 17.2028 52.2205 15.7993V15.6553ZM59.1525 20.3667C59.1525 21.705 59.2047 21.7399 60.4277 21.7399H64.5217C64.6076 21.7401 64.6898 21.7738 64.7506 21.8336C64.8114 21.8934 64.8458 21.9744 64.8463 22.0591V23.0782C64.8463 23.3034 64.7649 23.3832 64.5217 23.4139C64.0048 23.4942 62.9512 23.6363 61.0279 23.6363C58.3436 23.6363 56.9191 23.6548 56.9191 20.3667V15.3186C56.9191 12.0315 58.3436 12.0499 61.0279 12.0499C62.9512 12.0499 64.0048 12.1939 64.5217 12.2728C64.7649 12.3035 64.8463 12.3847 64.8463 12.6085V13.6281C64.8463 13.8023 64.7003 13.9492 64.5217 13.9492H60.4277C59.2047 13.9492 59.1525 13.9846 59.1525 15.3186V16.7825H64.3284C64.4138 16.7829 64.4956 16.8164 64.5562 16.8757C64.6169 16.9351 64.6514 17.0156 64.6524 17.0998V18.2516C64.6517 18.3361 64.6172 18.4169 64.5566 18.4765C64.496 18.5361 64.414 18.5698 64.3284 18.5703H59.1525V20.3667ZM72.1076 23.6363C69.5061 23.6363 67.2645 22.5205 67.2645 19.12V12.4806C67.2645 12.3035 67.4124 12.1765 67.59 12.1765H69.1883C69.3678 12.1765 69.5123 12.3035 69.5123 12.4806V19.12C69.5123 20.94 70.3648 21.8032 72.1081 21.8032C73.8562 21.8032 74.7082 20.94 74.7082 19.12V12.4806C74.7082 12.3035 74.8528 12.1765 75.0304 12.1765H76.631C76.8105 12.1765 76.9565 12.3035 76.9565 12.4806V19.12C76.9556 22.52 74.713 23.6363 72.1076 23.6363ZM87.5896 14.0261H84.3634V23.1915C84.362 23.2763 84.327 23.3572 84.2657 23.4167C84.2045 23.4763 84.122 23.5097 84.036 23.5098H82.4354C82.3498 23.5094 82.2678 23.4758 82.2071 23.4162C82.1465 23.3567 82.1121 23.2759 82.1113 23.1915V14.0261H78.8827C78.707 14.0261 78.561 13.9166 78.561 13.7409V12.4806C78.561 12.3035 78.707 12.1765 78.8827 12.1765H87.5892C87.7639 12.1765 87.9099 12.3035 87.9099 12.4806V13.7409C87.9103 13.9166 87.7648 14.0261 87.5896 14.0261ZM109.552 23.5098H107.578C107.4 23.5098 107.337 23.3483 107.256 23.1915L104.926 19.3226H104.565C104.147 19.3226 102.838 19.2773 102.464 19.257V23.1915C102.464 23.3658 102.335 23.5098 102.159 23.5098H100.543C100.458 23.5097 100.375 23.4762 100.315 23.4165C100.254 23.3569 100.219 23.2761 100.219 23.1915V12.7351C100.219 12.4149 100.41 12.3035 100.735 12.2563C101.575 12.1283 103.386 12.0494 104.564 12.0494C107.057 12.0494 109.356 12.9273 109.356 15.6553V15.7993C109.356 17.489 108.497 18.4136 107.172 18.9212L109.714 23.1915C109.739 23.2299 109.75 23.2751 109.747 23.3204C109.747 23.4286 109.681 23.5098 109.552 23.5098ZM107.126 15.6553C107.126 14.4587 106.185 13.9487 104.565 13.9487C104.227 13.9487 102.756 13.9803 102.464 14.0115V17.472C102.726 17.4875 104.294 17.5201 104.565 17.5201C106.233 17.5201 107.126 17.2028 107.126 15.7993V15.6553ZM115.725 23.6434C114.295 23.6434 112.847 23.4016 112.069 23.2255C111.909 23.1934 111.762 23.0824 111.762 22.9072V21.7578C111.762 21.5836 111.909 21.4542 112.069 21.4542H112.101C112.749 21.5345 114.263 21.7418 115.758 21.7418C117.196 21.7418 117.637 21.2337 117.637 20.3095C117.637 19.1125 114.741 18.4499 113.328 17.8757C111.921 17.3015 111.422 16.2021 111.422 15.0868C111.422 13.3306 112.855 12.0541 115.862 12.0541C117.404 12.0541 118.815 12.3431 119.365 12.4735C119.528 12.5056 119.655 12.6175 119.655 12.7762V13.9567C119.655 14.1145 119.544 14.2434 119.38 14.2434H119.349C118.281 14.1485 117.174 13.9544 115.768 13.9544C114.569 13.9544 113.673 14.369 113.673 15.0868C113.673 15.6119 114.281 16.094 114.999 16.3755C115.717 16.6545 116.658 17.0158 117.734 17.4427C119.096 17.9862 119.98 18.7781 119.98 20.3095C119.979 21.9198 118.961 23.6434 115.725 23.6434ZM91.8072 20.3667C91.8072 21.705 91.8574 21.7399 93.0833 21.7399H97.1802C97.2654 21.7411 97.3466 21.7752 97.4066 21.8349C97.4666 21.8946 97.5004 21.9751 97.5009 22.0591V23.0782C97.5009 23.3034 97.4195 23.3832 97.1802 23.4139C96.6594 23.4942 95.6078 23.6363 93.6845 23.6363C90.9949 23.6363 89.5737 23.6548 89.5737 20.3667V15.3186C89.5737 12.0315 90.9949 12.0499 93.6845 12.0499C95.6078 12.0499 96.6594 12.1939 97.1802 12.2728C97.4195 12.3035 97.5009 12.3847 97.5009 12.6085V13.6281C97.5009 13.8023 97.354 13.9492 97.1802 13.9492H93.0833C91.8574 13.9492 91.8072 13.9846 91.8072 15.3186V16.7825H96.9835C97.163 16.7825 97.3042 16.9275 97.3042 17.0998V18.2516C97.3044 18.3358 97.2708 18.4167 97.2107 18.4764C97.1505 18.5362 97.0688 18.57 96.9835 18.5703H91.8072V20.3667ZM25.9225 11.6381C25.7056 11.8639 25.4067 11.9954 25.0915 12.0039C24.7763 12.0124 24.4706 11.8972 24.2414 11.6835C24.1275 11.5779 24.0359 11.4512 23.9719 11.3106C23.9078 11.1699 23.8726 11.0182 23.8682 10.8641C23.8639 10.71 23.8904 10.5566 23.9464 10.4126C24.0025 10.2687 24.0868 10.1371 24.1945 10.0255C24.3013 9.91314 24.4295 9.82269 24.5718 9.75931C24.7141 9.69593 24.8676 9.66087 25.0236 9.65613C25.1797 9.65139 25.3351 9.67707 25.4811 9.7317C25.627 9.78633 25.7606 9.86883 25.8742 9.97448C26.1039 10.189 26.238 10.4846 26.247 10.7964C26.2561 11.1083 26.1394 11.411 25.9225 11.6381ZM14.0683 8.97101C13.9548 8.86618 13.8039 8.80985 13.6484 8.81427C13.493 8.81869 13.3456 8.88351 13.2383 8.99462C13.1322 9.10633 13.0751 9.25491 13.0796 9.40796C13.0841 9.561 13.1498 9.70609 13.2623 9.81156C13.3758 9.9165 13.5269 9.97283 13.6824 9.96822C13.8379 9.96362 13.9853 9.89847 14.0923 9.78701C14.1984 9.67546 14.2554 9.52703 14.2509 9.37414C14.2464 9.22125 14.1808 9.07632 14.0683 8.97101ZM17.0404 7.85562C16.9003 7.72648 16.7142 7.65723 16.5225 7.66298C16.3309 7.66873 16.1493 7.74901 16.0175 7.88631C15.9522 7.95474 15.9012 8.03518 15.8674 8.12305C15.8336 8.21092 15.8177 8.30449 15.8206 8.39842C15.8235 8.49235 15.8451 8.5848 15.8842 8.67049C15.9234 8.75618 15.9792 8.83342 16.0486 8.89781C16.1889 9.0268 16.3753 9.09581 16.567 9.0898C16.7587 9.08378 16.9402 9.00323 17.072 8.8657C17.2028 8.72724 17.2728 8.54342 17.2669 8.35425C17.261 8.16508 17.1796 7.98587 17.0404 7.85562ZM20.2283 7.62565C20.0506 7.46118 19.8141 7.37279 19.5705 7.37978C19.3269 7.38677 19.096 7.48857 18.9283 7.66295C18.7694 7.83963 18.6866 8.07036 18.6973 8.30625C18.708 8.54215 18.8113 8.76468 18.9854 8.92669C19.1595 9.08871 19.3908 9.17748 19.6301 9.17421C19.8694 9.17093 20.0981 9.07587 20.2676 8.90915C20.4344 8.73357 20.5239 8.49994 20.5166 8.2594C20.5092 8.01886 20.4056 7.79099 20.2283 7.62565ZM23.2444 8.38734C23.1457 8.29507 23.0295 8.22294 22.9025 8.17509C22.7754 8.12724 22.6401 8.10462 22.5041 8.10853C22.3682 8.11243 22.2344 8.14279 22.1104 8.19785C21.9864 8.25291 21.8747 8.33159 21.7816 8.42937C21.6883 8.52676 21.6153 8.64133 21.5669 8.76654C21.5184 8.89174 21.4955 9.02514 21.4993 9.1591C21.5031 9.29306 21.5336 9.42497 21.5891 9.54729C21.6446 9.66961 21.724 9.77995 21.8227 9.87201C22.0228 10.0574 22.2891 10.157 22.5634 10.1491C22.8377 10.1413 23.0977 10.0265 23.2865 9.82998C23.4744 9.63294 23.5754 9.37048 23.5675 9.10008C23.5596 8.82968 23.4434 8.57339 23.2444 8.38734ZM11.5486 10.9241C11.464 10.8462 11.3516 10.8044 11.2359 10.8077C11.1202 10.8111 11.0105 10.8594 10.9307 10.9421C10.8911 10.9831 10.8601 11.0314 10.8395 11.0843C10.8189 11.1371 10.8091 11.1935 10.8107 11.2501C10.8122 11.3067 10.8251 11.3624 10.8486 11.4141C10.8721 11.4658 10.9057 11.5124 10.9474 11.5512C10.9889 11.5904 11.0379 11.6211 11.0915 11.6415C11.1452 11.6619 11.2023 11.6716 11.2598 11.67C11.3172 11.6684 11.3738 11.6556 11.4261 11.6323C11.4785 11.609 11.5257 11.5757 11.5649 11.5342C11.6446 11.4511 11.6877 11.3402 11.6846 11.2259C11.6816 11.1115 11.6327 11.003 11.5486 10.9241ZM26.7693 21.5671C26.6625 21.6789 26.6051 21.828 26.6096 21.9816C26.6141 22.1352 26.6801 22.2807 26.7932 22.3864C26.9078 22.4869 27.0575 22.5394 27.2107 22.5327C27.3639 22.526 27.5083 22.4606 27.6134 22.3504C27.7184 22.2403 27.7758 22.094 27.7732 21.9428C27.7707 21.7916 27.7085 21.6473 27.5998 21.5406C27.4859 21.4359 27.3346 21.3799 27.179 21.3848C27.0234 21.3898 26.8761 21.4553 26.7693 21.5671ZM27.5208 18.5788C27.3904 18.7172 27.3208 18.9008 27.3269 19.0896C27.3331 19.2785 27.4147 19.4572 27.5538 19.587C27.6229 19.6516 27.7043 19.7021 27.7933 19.7355C27.8822 19.769 27.977 19.7847 28.0721 19.7819C28.1673 19.7791 28.2609 19.7578 28.3477 19.7192C28.4345 19.6805 28.5126 19.6254 28.5777 19.5568C28.6432 19.4887 28.6943 19.4084 28.7281 19.3207C28.762 19.233 28.7779 19.1395 28.7749 19.0457C28.7719 18.9518 28.7501 18.8595 28.7107 18.774C28.6714 18.6886 28.6153 18.6116 28.5456 18.5477C28.4052 18.4184 28.2187 18.3491 28.0267 18.3549C27.8347 18.3607 27.6529 18.4412 27.5208 18.5788ZM27.2901 15.432C27.2071 15.5186 27.1424 15.6205 27.0995 15.7319C27.0566 15.8434 27.0364 15.962 27.0401 16.0811C27.0437 16.2003 27.0712 16.3175 27.121 16.4261C27.1707 16.5347 27.2417 16.6326 27.3298 16.714C27.4177 16.7958 27.521 16.8597 27.6339 16.9019C27.7469 16.9442 27.8671 16.9641 27.9878 16.9605C28.1086 16.9569 28.2274 16.9297 28.3375 16.8807C28.4476 16.8317 28.5468 16.7617 28.6294 16.6748C28.7914 16.4988 28.8768 16.267 28.8672 16.0294C28.8577 15.7918 28.754 15.5674 28.5785 15.4045C28.4029 15.2416 28.1695 15.1532 27.9286 15.1583C27.6876 15.1634 27.4583 15.2617 27.2901 15.432ZM26.1767 12.5155C26.0363 12.6626 25.9433 12.8474 25.9095 13.0467C25.8757 13.2459 25.9025 13.4506 25.9866 13.6347C26.0707 13.8189 26.2084 13.9743 26.382 14.0813C26.5557 14.1883 26.7577 14.2421 26.9624 14.2358C27.167 14.2295 27.3652 14.1635 27.5318 14.046C27.6984 13.9286 27.826 13.765 27.8983 13.5761C27.9706 13.3871 27.9845 13.1812 27.9382 12.9844C27.8919 12.7876 27.7874 12.6088 27.6381 12.4706C27.2255 12.0844 26.5697 12.1066 26.1767 12.5155ZM25.1538 24.1591C25.0748 24.2427 25.0325 24.3538 25.0361 24.468C25.0396 24.5823 25.0888 24.6905 25.1729 24.7692C25.2148 24.8079 25.264 24.838 25.3177 24.8578C25.3714 24.8777 25.4286 24.8868 25.4859 24.8847C25.5432 24.8827 25.5995 24.8694 25.6516 24.8458C25.7037 24.8222 25.7506 24.7886 25.7895 24.747C25.8292 24.7064 25.8604 24.6584 25.881 24.6057C25.9016 24.5531 25.9114 24.4969 25.9096 24.4404C25.9079 24.384 25.8947 24.3285 25.8709 24.2772C25.847 24.2258 25.813 24.1798 25.7708 24.1416C25.7294 24.1023 25.6804 24.0716 25.6268 24.0512C25.5732 24.0308 25.516 24.0211 25.4586 24.0227C25.4011 24.0244 25.3446 24.0373 25.2923 24.0607C25.24 24.0841 25.1929 24.1175 25.1538 24.1591ZM12.5285 25.6674C12.7416 25.4402 12.8553 25.1392 12.8447 24.8298C12.834 24.5204 12.7 24.2277 12.4718 24.0153C12.2435 23.8028 11.9395 23.6879 11.6258 23.6955C11.3121 23.7031 11.0141 23.8325 10.7967 24.0557C10.591 24.2841 10.4836 24.5825 10.4972 24.8878C10.5109 25.193 10.6445 25.481 10.8698 25.6906C11.095 25.9003 11.3942 26.0151 11.7039 26.0108C12.0136 26.0064 12.3093 25.8833 12.5285 25.6674ZM9.95325 14.1253C10.0061 14.07 10.0475 14.0049 10.0749 13.9339C10.1023 13.8628 10.1153 13.7871 10.113 13.7111C10.1108 13.6351 10.0934 13.5602 10.0618 13.4908C10.0303 13.4215 9.98515 13.3589 9.92908 13.3067C9.87301 13.2545 9.80707 13.2138 9.73502 13.1867C9.66298 13.1597 9.58624 13.1469 9.50919 13.1491C9.43213 13.1513 9.35628 13.1685 9.28595 13.1996C9.21563 13.2308 9.1522 13.2752 9.09931 13.3306C8.87433 13.562 8.88774 13.927 9.12563 14.148C9.35874 14.3652 9.72923 14.3562 9.95325 14.1253ZM9.19887 17.115C9.32995 16.9766 9.40037 16.7927 9.39482 16.6034C9.38926 16.4141 9.30817 16.2346 9.16919 16.1039C9.02852 15.9796 8.84422 15.9144 8.65553 15.9222C8.46684 15.9299 8.28868 16.01 8.15897 16.1454C8.02926 16.2808 7.95825 16.4609 7.96107 16.6471C7.96388 16.8334 8.0403 17.0113 8.17405 17.1428C8.31401 17.2725 8.5003 17.3424 8.69228 17.3372C8.88426 17.332 9.06636 17.2521 9.19887 17.115ZM9.43102 20.2604C9.59864 20.0848 9.68871 19.8507 9.68144 19.6096C9.67417 19.3685 9.57016 19.1401 9.39225 18.9746C9.21424 18.8097 8.97721 18.7213 8.73319 18.7288C8.48917 18.7362 8.25811 18.8389 8.09076 19.0142C7.92409 19.1899 7.83474 19.4235 7.84228 19.6639C7.84981 19.9044 7.95362 20.1321 8.13097 20.2973C8.50241 20.6434 9.08351 20.625 9.43102 20.2604ZM10.5425 23.1778C10.7304 22.9807 10.8315 22.7181 10.8235 22.4476C10.8155 22.1771 10.6992 21.9207 10.4999 21.7347C10.4012 21.6428 10.2851 21.571 10.1582 21.5234C10.0314 21.4759 9.89622 21.4536 9.76057 21.4577C9.62492 21.4618 9.49143 21.4923 9.36777 21.5475C9.2441 21.6026 9.1327 21.6813 9.03995 21.7791C8.94634 21.8763 8.87308 21.9907 8.82438 22.1159C8.77567 22.241 8.75248 22.3744 8.75613 22.5084C8.75977 22.6425 8.79019 22.7744 8.84563 22.8968C8.90107 23.0192 8.98044 23.1296 9.0792 23.2217C9.27981 23.406 9.54602 23.5048 9.82 23.4965C10.094 23.4883 10.3536 23.3738 10.5425 23.1778ZM22.6528 26.7214C22.7088 26.7736 22.7747 26.8144 22.8467 26.8415C22.9188 26.8685 22.9955 26.8812 23.0726 26.8789C23.1496 26.8766 23.2254 26.8592 23.2956 26.8279C23.3659 26.7966 23.4291 26.7519 23.4818 26.6963C23.5347 26.6412 23.5759 26.5763 23.6033 26.5054C23.6306 26.4345 23.6435 26.359 23.6411 26.2831C23.6388 26.2073 23.6212 26.1327 23.5895 26.0636C23.5578 25.9944 23.5126 25.9322 23.4564 25.8803C23.4006 25.8281 23.3349 25.7873 23.263 25.7602C23.1911 25.7331 23.1146 25.7202 23.0377 25.7224C22.9607 25.7246 22.885 25.7418 22.8149 25.773C22.7447 25.8041 22.6815 25.8486 22.6288 25.904C22.5222 26.0155 22.4648 26.1643 22.4693 26.3176C22.4738 26.4708 22.5398 26.6161 22.6528 26.7214ZM19.6807 27.8353C19.9727 28.1069 20.4303 28.0889 20.7046 27.8037C20.7699 27.7357 20.821 27.6557 20.8549 27.5682C20.8888 27.4807 20.9048 27.3874 20.902 27.2938C20.8993 27.2001 20.8778 27.1079 20.8388 27.0225C20.7998 26.9371 20.7441 26.8601 20.6749 26.796C20.5345 26.6661 20.3476 26.5965 20.1552 26.6023C19.9629 26.6082 19.7807 26.689 19.6486 26.8271C19.518 26.9654 19.4481 27.1489 19.4541 27.3378C19.4601 27.5266 19.5416 27.7055 19.6807 27.8353ZM16.4909 28.0625C16.8642 28.4096 17.4425 28.3926 17.7905 28.028C17.8736 27.9416 17.9386 27.8398 17.9818 27.7285C18.025 27.6172 18.0455 27.4986 18.0421 27.3795C18.0387 27.2604 18.0116 27.1431 17.9621 27.0344C17.9127 26.9257 17.842 26.8276 17.7541 26.7459C17.5762 26.5809 17.3392 26.492 17.0951 26.4987C16.851 26.5055 16.6195 26.6072 16.4511 26.7818C16.3684 26.8684 16.3037 26.9702 16.2609 27.0815C16.2181 27.1928 16.198 27.3113 16.2016 27.4303C16.2053 27.5492 16.2328 27.6663 16.2824 27.7748C16.332 27.8833 16.4029 27.9811 16.4909 28.0625ZM13.481 27.305C13.5796 27.397 13.6956 27.4689 13.8224 27.5166C13.9492 27.5642 14.0843 27.5867 14.2199 27.5828C14.3556 27.5788 14.4891 27.5485 14.6128 27.4936C14.7365 27.4386 14.848 27.3601 14.941 27.2625C15.034 27.165 15.1066 27.0503 15.1546 26.925C15.2027 26.7997 15.2253 26.6664 15.2211 26.5325C15.2169 26.3986 15.1861 26.2669 15.1303 26.1448C15.0745 26.0227 14.9949 25.9126 14.896 25.8208C14.7971 25.7291 14.6808 25.6575 14.5538 25.61C14.4269 25.5626 14.2917 25.5403 14.156 25.5445C14.0203 25.5486 13.8867 25.579 13.7629 25.6341C13.6392 25.6891 13.5276 25.7677 13.4346 25.8652C13.3416 25.9627 13.2691 26.0773 13.2211 26.2024C13.1731 26.3276 13.1506 26.4609 13.1549 26.5946C13.1593 26.7284 13.1903 26.86 13.2462 26.9819C13.3022 27.1038 13.382 27.2136 13.481 27.305Z" fill="white"/>
<path d="M21.3144 11.1731C21.2801 11.2879 21.2231 11.3948 21.1467 11.4878C21.0704 11.5808 20.9762 11.658 20.8696 11.7149C20.7629 11.7719 20.6459 11.8076 20.5253 11.8199C20.4047 11.8322 20.2828 11.8208 20.1666 11.7865C20.0495 11.7532 19.9404 11.6973 19.8454 11.6221C19.7504 11.5469 19.6714 11.4539 19.6131 11.3485C19.5547 11.243 19.5182 11.1272 19.5054 11.0077C19.4927 10.8882 19.5041 10.7674 19.539 10.6523C19.609 10.42 19.7697 10.2247 19.9857 10.1093C20.0926 10.0522 20.2099 10.0164 20.3309 10.004C20.4519 9.99154 20.5741 10.0028 20.6907 10.037C20.8073 10.0712 20.9159 10.1277 21.0103 10.2033C21.1047 10.2789 21.1832 10.3721 21.2411 10.4776C21.299 10.5831 21.3353 10.6988 21.3479 10.8182C21.3604 10.9375 21.3491 11.0581 21.3144 11.1731ZM12.4385 13.3298C12.3217 13.2977 12.1969 13.312 12.0906 13.3695C11.9844 13.427 11.9051 13.5233 11.8698 13.6376C11.8406 13.7509 11.8571 13.8709 11.9158 13.9724C11.9745 14.0738 12.0708 14.1489 12.1845 14.1817C12.2981 14.2145 12.4203 14.2025 12.5252 14.1482C12.63 14.094 12.7095 14.0017 12.7467 13.8908C12.8224 13.6532 12.6788 13.4034 12.4385 13.3298ZM14.0444 11.5873C13.9734 11.5666 13.8988 11.56 13.8252 11.5678C13.7515 11.5757 13.6802 11.5978 13.6152 11.633C13.5503 11.6681 13.493 11.7156 13.4467 11.7727C13.4005 11.8298 13.3661 11.8953 13.3456 11.9655C13.3244 12.0356 13.3174 12.1092 13.3252 12.182C13.3329 12.2548 13.3552 12.3253 13.3907 12.3896C13.4262 12.4539 13.4743 12.5106 13.5321 12.5564C13.5899 12.6023 13.6563 12.6364 13.7275 12.6568C13.8713 12.6979 14.0257 12.6812 14.157 12.6104C14.2884 12.5397 14.3861 12.4206 14.4288 12.2791C14.4701 12.1371 14.4528 11.9847 14.3808 11.8552C14.3089 11.7256 14.188 11.6293 14.0444 11.5873ZM16.1022 10.359C15.9196 10.307 15.7236 10.328 15.5566 10.4176C15.3896 10.5071 15.2651 10.6579 15.21 10.8374C15.1573 11.0177 15.1792 11.2113 15.2708 11.3758C15.3623 11.5402 15.5162 11.6623 15.6987 11.7152C15.7889 11.7418 15.8837 11.7505 15.9773 11.7408C16.071 11.7311 16.1618 11.7032 16.2445 11.6587C16.3272 11.6142 16.4002 11.5539 16.4591 11.4815C16.5181 11.409 16.5619 11.3257 16.588 11.2364C16.6396 11.0565 16.6176 10.8639 16.5268 10.6998C16.4359 10.5358 16.2835 10.4134 16.1022 10.359ZM18.3811 9.85609C18.2795 9.82606 18.1728 9.81618 18.0672 9.82702C17.9617 9.83785 17.8593 9.8692 17.7661 9.91924C17.6729 9.96929 17.5906 10.037 17.5241 10.1186C17.4575 10.2002 17.408 10.2939 17.3783 10.3944C17.3481 10.4946 17.3382 10.5997 17.3493 10.7036C17.3603 10.8076 17.3921 10.9084 17.4428 11.0002C17.4934 11.092 17.562 11.173 17.6445 11.2386C17.727 11.3042 17.8218 11.353 17.9235 11.3823C18.1285 11.4414 18.3488 11.418 18.5363 11.3173C18.7239 11.2166 18.8634 11.0468 18.9244 10.8449C18.955 10.7448 18.9652 10.6397 18.9545 10.5357C18.9437 10.4317 18.9121 10.3308 18.8616 10.2388C18.8111 10.1469 18.7427 10.0657 18.6602 10.0001C18.5777 9.93436 18.4829 9.88543 18.3811 9.85609ZM11.4232 15.4869C11.3805 15.4744 11.3357 15.4703 11.2914 15.4749C11.2471 15.4796 11.2042 15.4928 11.1651 15.5139C11.126 15.5349 11.0915 15.5634 11.0636 15.5977C11.0357 15.632 11.0149 15.6713 11.0025 15.7135C10.9894 15.756 10.985 15.8007 10.9894 15.8449C10.9939 15.8891 11.0071 15.932 11.0283 15.9712C11.0496 16.0103 11.0784 16.045 11.1133 16.0731C11.1481 16.1013 11.1882 16.1224 11.2313 16.1352C11.4141 16.1872 11.6027 16.0833 11.6559 15.9048C11.6685 15.8623 11.6726 15.8177 11.6677 15.7737C11.6629 15.7296 11.6492 15.687 11.6276 15.6481C11.606 15.6093 11.5768 15.575 11.5417 15.5474C11.5067 15.5197 11.4664 15.4991 11.4232 15.4869ZM25.2505 17.5146C25.2333 17.5715 25.2277 17.6311 25.234 17.6901C25.2404 17.7491 25.2585 17.8063 25.2874 17.8584C25.3163 17.9104 25.3554 17.9563 25.4023 17.9933C25.4493 18.0304 25.5033 18.0579 25.5611 18.0742C25.6774 18.1079 25.8025 18.0947 25.909 18.0375C26.0154 17.9802 26.0944 17.8836 26.1286 17.7689C26.1628 17.6542 26.1494 17.5307 26.0914 17.4257C26.0334 17.3208 25.9354 17.2428 25.8191 17.2091C25.7027 17.1755 25.5775 17.1888 25.4709 17.2461C25.3643 17.3033 25.2851 17.3999 25.2505 17.5146ZM24.722 15.2597C24.7006 15.3301 24.6936 15.4039 24.7013 15.477C24.7089 15.55 24.7312 15.6209 24.7669 15.6854C24.8025 15.7499 24.8507 15.8068 24.9087 15.8528C24.9667 15.8988 25.0334 15.933 25.105 15.9534C25.4065 16.0413 25.7177 15.8713 25.8057 15.5756C25.8938 15.28 25.7239 14.9717 25.4247 14.8867C25.3537 14.8656 25.2793 14.8585 25.2055 14.8659C25.1318 14.8732 25.0602 14.8948 24.995 14.9295C24.9297 14.9641 24.872 15.0111 24.8252 15.0678C24.7783 15.1245 24.7433 15.1897 24.722 15.2597ZM23.4775 13.2315C23.451 13.3206 23.4426 13.414 23.4527 13.5063C23.4628 13.5986 23.4913 13.688 23.5364 13.7694C23.5815 13.8509 23.6425 13.9228 23.7158 13.981C23.7891 14.0392 23.8733 14.0826 23.9636 14.1087C24.0539 14.1348 24.1485 14.1431 24.2421 14.1331C24.3356 14.1232 24.4263 14.0951 24.5088 14.0506C24.5914 14.0061 24.6642 13.9459 24.7232 13.8736C24.7823 13.8013 24.8262 13.7182 24.8527 13.6291C24.8795 13.5402 24.8881 13.447 24.8781 13.3547C24.8681 13.2625 24.8397 13.1731 24.7945 13.0918C24.7493 13.0104 24.6881 12.9388 24.6147 12.8809C24.5412 12.823 24.4568 12.7801 24.3664 12.7546C24.1844 12.7028 23.9891 12.7237 23.8227 12.813C23.6563 12.9023 23.5323 13.0527 23.4775 13.2315ZM21.7261 11.6562C21.6662 11.8587 21.6903 12.0764 21.7932 12.2614C21.896 12.4463 22.0691 12.5834 22.2744 12.6424C22.4796 12.7015 22.7003 12.6777 22.8878 12.5762C23.0753 12.4748 23.2142 12.304 23.2741 12.1015C23.3043 12.0015 23.3142 11.8965 23.3032 11.7927C23.2922 11.6888 23.2605 11.5881 23.2099 11.4964C23.1593 11.4047 23.0909 11.3238 23.0085 11.2582C22.9261 11.1927 22.8314 11.1439 22.7298 11.1146C22.5239 11.0552 22.3025 11.0789 22.1143 11.1804C21.9261 11.282 21.7865 11.4531 21.7261 11.6562ZM25.0652 19.7907C25.0406 19.8761 25.0507 19.9676 25.0936 20.0457C25.1364 20.1238 25.2085 20.1823 25.2945 20.2086C25.3376 20.2214 25.3828 20.2256 25.4275 20.2209C25.4722 20.2163 25.5155 20.2029 25.5549 20.1816C25.5944 20.1603 25.6291 20.1315 25.6571 20.0968C25.6851 20.0621 25.7059 20.0223 25.7181 19.9796C25.7311 19.9372 25.7355 19.8927 25.7309 19.8487C25.7263 19.8046 25.7129 19.7619 25.6915 19.723C25.6701 19.6841 25.6411 19.6497 25.6061 19.622C25.5712 19.5942 25.531 19.5736 25.4879 19.5612C25.401 19.5372 25.308 19.5477 25.229 19.5907C25.1499 19.6336 25.0911 19.7054 25.0652 19.7907ZM17.1845 25.0437C17.2192 24.9282 17.2304 24.8072 17.2176 24.6874C17.2047 24.5676 17.168 24.4515 17.1096 24.3458C17.0511 24.2401 16.9721 24.1467 16.877 24.0712C16.7819 23.9957 16.6727 23.9394 16.5555 23.9057C16.4388 23.8718 16.3165 23.8609 16.1955 23.8737C16.0746 23.8866 15.9574 23.9228 15.8506 23.9803C15.7439 24.0379 15.6497 24.1156 15.5734 24.2091C15.4972 24.3026 15.4403 24.41 15.4062 24.5252C15.3716 24.6406 15.3604 24.7616 15.3733 24.8813C15.3862 25.001 15.4229 25.117 15.4813 25.2226C15.5398 25.3283 15.6188 25.4215 15.7138 25.4969C15.8089 25.5724 15.9181 25.6286 16.0352 25.6623C16.5263 25.8026 17.0447 25.524 17.1845 25.0437ZM11.4706 18.1785C11.5051 18.0639 11.492 17.9404 11.4341 17.8353C11.3763 17.7302 11.2786 17.652 11.1624 17.618C11.0456 17.5854 10.9205 17.5993 10.814 17.6567C10.7075 17.7141 10.628 17.8104 10.5927 17.925C10.576 17.9817 10.5707 18.0411 10.5773 18.0999C10.5839 18.1586 10.6021 18.2155 10.6311 18.2673C10.66 18.3191 10.6989 18.3647 10.7458 18.4016C10.7926 18.4384 10.8463 18.4658 10.9039 18.4822C10.9613 18.4993 11.0216 18.5049 11.0812 18.4989C11.1409 18.4929 11.1987 18.4752 11.2514 18.447C11.3041 18.4187 11.3506 18.3805 11.3883 18.3344C11.4259 18.2883 11.4539 18.2353 11.4706 18.1785ZM12 20.432C12.0211 20.3623 12.0279 20.2892 12.0202 20.2168C12.0124 20.1445 11.9901 20.0744 11.9547 20.0106C11.9192 19.9469 11.8713 19.8907 11.8137 19.8453C11.7561 19.7999 11.6899 19.7663 11.619 19.7463C11.5481 19.7244 11.4735 19.7168 11.3996 19.7239C11.3257 19.731 11.2539 19.7526 11.1886 19.7875C11.1233 19.8224 11.0658 19.8699 11.0194 19.9272C10.9731 19.9844 10.9388 20.0503 10.9187 20.1208C10.8769 20.2622 10.8937 20.4143 10.9655 20.5435C11.0374 20.6727 11.1583 20.7685 11.3016 20.8098C11.445 20.851 11.5992 20.8344 11.7301 20.7636C11.8611 20.6927 11.9582 20.5734 12 20.432ZM13.2465 22.463C13.2989 22.2821 13.277 22.088 13.1854 21.9229C13.0939 21.7578 12.94 21.6349 12.7573 21.5809C12.5747 21.529 12.3787 21.5506 12.2122 21.641C12.0457 21.7313 11.9222 21.8831 11.8689 22.063C11.842 22.1521 11.8333 22.2454 11.8431 22.3378C11.853 22.4302 11.8813 22.5197 11.9264 22.6012C11.9714 22.6828 12.0324 22.7547 12.1057 22.8129C12.1791 22.8711 12.2634 22.9145 12.3538 22.9404C12.4441 22.9671 12.539 22.9759 12.6328 22.9663C12.7267 22.9568 12.8177 22.929 12.9006 22.8846C12.9836 22.8403 13.0568 22.7802 13.1162 22.7079C13.1755 22.6355 13.2198 22.5523 13.2465 22.463ZM14.9979 24.0407C15.0573 23.8378 15.0328 23.6199 14.9297 23.4347C14.8267 23.2495 14.6534 23.1122 14.4479 23.0528C14.3464 23.0232 14.2398 23.0138 14.1346 23.0251C14.0293 23.0364 13.9273 23.0682 13.8345 23.1186C13.7418 23.169 13.6601 23.2371 13.5941 23.3188C13.5282 23.4006 13.4793 23.4944 13.4504 23.5949C13.4205 23.6949 13.4109 23.7997 13.4222 23.9033C13.4334 24.0069 13.4653 24.1073 13.5159 24.1988C13.5666 24.2903 13.635 24.371 13.7173 24.4363C13.7996 24.5016 13.8942 24.5503 13.9956 24.5795C14.2009 24.6383 14.4215 24.6147 14.6092 24.5137C14.797 24.4128 14.9367 24.2428 14.9979 24.0407ZM24.2812 22.362C24.3979 22.3961 24.5236 22.3832 24.6307 22.326C24.7377 22.2688 24.8174 22.172 24.8522 22.0569C24.8856 21.9419 24.8718 21.8186 24.8139 21.7136C24.756 21.6086 24.6585 21.5302 24.5425 21.4954C24.4261 21.4625 24.3012 21.4762 24.1948 21.5335C24.0885 21.5907 24.0093 21.687 23.9744 21.8014C23.9402 21.9159 23.9533 22.039 24.0108 22.144C24.0683 22.249 24.1654 22.3273 24.2812 22.362ZM22.6781 24.1068C22.821 24.1484 22.9748 24.1323 23.1056 24.0621C23.2365 23.9919 23.3338 23.8733 23.376 23.7323C23.3977 23.6623 23.4051 23.5887 23.3978 23.5158C23.3905 23.4429 23.3686 23.3721 23.3333 23.3076C23.2981 23.2431 23.2503 23.1861 23.1927 23.1399C23.135 23.0938 23.0686 23.0594 22.9974 23.0386C22.8533 22.997 22.6984 23.0132 22.5664 23.0838C22.4344 23.1544 22.336 23.2736 22.2928 23.4155C22.2525 23.5575 22.2703 23.7095 22.3423 23.8388C22.4144 23.9681 22.5349 24.0643 22.6781 24.1068ZM20.6203 25.3355C20.7108 25.3621 20.8058 25.3708 20.8997 25.3611C20.9937 25.3513 21.0847 25.3233 21.1676 25.2786C21.2505 25.234 21.3236 25.1736 21.3827 25.1009C21.4419 25.0283 21.4858 24.9448 21.5121 24.8553C21.5385 24.7663 21.5468 24.6731 21.5367 24.5809C21.5265 24.4887 21.4981 24.3994 21.4529 24.3181C21.4077 24.2368 21.3467 24.165 21.2735 24.107C21.2002 24.0489 21.116 24.0057 21.0258 23.9798C20.9355 23.9535 20.8409 23.9451 20.7474 23.9549C20.6538 23.9647 20.5631 23.9925 20.4805 24.0369C20.3979 24.0813 20.3249 24.1413 20.2658 24.2135C20.2067 24.2857 20.1625 24.3687 20.1359 24.4577C20.1093 24.5467 20.1007 24.64 20.1107 24.7323C20.1206 24.8246 20.1489 24.9141 20.1938 24.9956C20.2388 25.0771 20.2996 25.1491 20.3728 25.2074C20.446 25.2657 20.5301 25.3093 20.6203 25.3355ZM18.3433 25.8366C18.4445 25.867 18.5509 25.8773 18.6562 25.8669C18.7615 25.8564 18.8636 25.8254 18.9567 25.7757C19.0497 25.726 19.1318 25.6585 19.1982 25.5771C19.2645 25.4958 19.3138 25.4023 19.3433 25.302C19.3731 25.2017 19.3826 25.0966 19.3712 24.9927C19.3599 24.8887 19.3279 24.788 19.2771 24.6963C19.1745 24.511 19.0015 24.3735 18.7961 24.3141C18.5908 24.2547 18.3699 24.2782 18.1821 24.3794C17.9943 24.4806 17.855 24.6513 17.7948 24.8539C17.736 25.0559 17.7607 25.2728 17.8635 25.4569C17.9663 25.6411 18.1388 25.7776 18.3433 25.8366Z" fill="white"/>
<path d="M16.4569 12.8695C16.6436 13.2128 16.5167 13.6435 16.1673 13.8296C15.9987 13.9188 15.8012 13.9384 15.618 13.884C15.4348 13.8297 15.281 13.7058 15.1903 13.5396C14.9989 13.1968 15.131 12.7652 15.4795 12.5801C15.5628 12.5354 15.6543 12.5075 15.7487 12.4978C15.843 12.4882 15.9384 12.4971 16.0293 12.524C16.1201 12.5509 16.2047 12.5953 16.2781 12.6546C16.3515 12.7139 16.4122 12.787 16.4569 12.8695ZM12.9009 18.4238C12.8027 18.4776 12.73 18.5674 12.6983 18.6736C12.6666 18.7799 12.6785 18.8942 12.7314 18.9919C12.7576 19.0403 12.7933 19.083 12.8364 19.1175C12.8795 19.1521 12.9292 19.1778 12.9826 19.1931C13.0359 19.2084 13.0918 19.213 13.147 19.2067C13.2022 19.2004 13.2556 19.1832 13.3039 19.1562C13.3534 19.1311 13.3973 19.0964 13.433 19.0541C13.4686 19.0119 13.4953 18.963 13.5113 18.9104C13.5274 18.8578 13.5326 18.8025 13.5266 18.7479C13.5205 18.6932 13.5034 18.6404 13.4762 18.5924C13.4222 18.4952 13.3314 18.4229 13.2237 18.3914C13.116 18.3598 12.9999 18.3715 12.9009 18.4238ZM12.8291 16.7163C12.7152 16.7779 12.6306 16.8813 12.5935 17.0041C12.5565 17.1269 12.5701 17.2592 12.6314 17.3722C12.764 17.6121 13.0617 17.6985 13.3025 17.5719C13.5404 17.4435 13.6313 17.1436 13.5026 16.9108C13.4716 16.8541 13.4295 16.804 13.3788 16.7635C13.3281 16.723 13.2697 16.6928 13.207 16.6747C13.1444 16.6566 13.0787 16.6509 13.0138 16.6581C12.9489 16.6652 12.8861 16.685 12.8291 16.7163ZM13.2781 15.0729C13.1468 15.1434 13.0489 15.262 13.0055 15.4031C12.9621 15.5442 12.9766 15.6964 13.0459 15.8271C13.1967 16.0958 13.5389 16.1996 13.8118 16.0528C13.8773 16.0182 13.9353 15.9713 13.9824 15.9146C14.0296 15.8579 14.0649 15.7925 14.0863 15.7223C14.1078 15.6522 14.115 15.5785 14.1076 15.5055C14.1002 15.4326 14.0782 15.3618 14.043 15.2972C13.9709 15.1683 13.8502 15.0725 13.7071 15.0305C13.564 14.9885 13.4099 15.0038 13.2781 15.0729ZM14.1942 13.6515C14.1201 13.6903 14.0544 13.7433 14.0012 13.8073C13.9479 13.8713 13.9081 13.9452 13.884 14.0245C13.8599 14.1039 13.852 14.1871 13.8608 14.2695C13.8696 14.3519 13.8949 14.4317 13.9353 14.5044C14.1028 14.8061 14.4829 14.9209 14.7911 14.7561C14.8651 14.7178 14.9306 14.6654 14.9839 14.602C15.0371 14.5385 15.0771 14.4653 15.1015 14.3864C15.1258 14.3076 15.1341 14.2248 15.1258 14.1429C15.1174 14.0609 15.0927 13.9814 15.053 13.9089C15.0139 13.8362 14.9607 13.7718 14.8963 13.7194C14.832 13.667 14.7577 13.6278 14.6779 13.6039C14.5981 13.5799 14.5143 13.5718 14.4312 13.58C14.3482 13.5882 14.2677 13.6125 14.1942 13.6515ZM13.493 20.0407C13.4519 20.0625 13.4155 20.0921 13.3861 20.1279C13.3566 20.1636 13.3346 20.2047 13.3213 20.2489C13.308 20.293 13.3037 20.3393 13.3086 20.3851C13.3135 20.4309 13.3275 20.4753 13.3499 20.5158C13.3954 20.5966 13.4711 20.6566 13.5609 20.6831C13.6507 20.7096 13.7474 20.7004 13.8304 20.6574C13.9123 20.612 13.9728 20.5366 13.9991 20.4477C14.0253 20.3587 14.0151 20.2631 13.9707 20.1814C13.9257 20.1009 13.8504 20.041 13.761 20.0147C13.6717 19.9883 13.5754 19.9977 13.493 20.0407ZM21.6753 14.2258C21.73 14.323 21.8209 14.3954 21.9288 14.4275C22.0366 14.4597 22.153 14.4492 22.2531 14.3981C22.3517 14.3441 22.4249 14.2542 22.4571 14.1475C22.4892 14.0409 22.4777 13.926 22.4249 13.8277C22.3987 13.7793 22.363 13.7365 22.3199 13.7018C22.2768 13.6671 22.2271 13.6411 22.1738 13.6255C22.1205 13.6098 22.0645 13.6047 22.0092 13.6105C21.9539 13.6162 21.9003 13.6328 21.8515 13.6591C21.8022 13.6849 21.7585 13.72 21.7229 13.7624C21.6874 13.8048 21.6607 13.8538 21.6443 13.9064C21.628 13.959 21.6223 14.0143 21.6276 14.0691C21.6329 14.1239 21.6491 14.1771 21.6753 14.2258ZM20.2379 13.3233C20.3676 13.5604 20.673 13.6468 20.9056 13.5179C21.1512 13.3894 21.2388 13.0948 21.1076 12.8587C21.0459 12.7454 20.9413 12.6607 20.8165 12.6232C20.6918 12.5857 20.5571 12.5984 20.4418 12.6584C20.3262 12.7207 20.24 12.8253 20.2019 12.9497C20.1638 13.0741 20.1767 13.2083 20.2379 13.3233ZM18.5769 12.8842C18.6115 12.9483 18.6587 13.0051 18.7158 13.0511C18.7728 13.0972 18.8386 13.1316 18.9092 13.1523C18.9798 13.1731 19.0539 13.1799 19.1272 13.1722C19.2005 13.1645 19.2715 13.1425 19.3361 13.1075C19.4017 13.0732 19.4597 13.0264 19.5069 12.9699C19.5541 12.9133 19.5895 12.8482 19.6111 12.7781C19.6326 12.708 19.64 12.6344 19.6326 12.5615C19.6253 12.4886 19.6034 12.4179 19.5682 12.3534C19.5333 12.2889 19.4858 12.2319 19.4283 12.1858C19.3709 12.1396 19.3047 12.1052 19.2337 12.0845C19.1626 12.0638 19.0881 12.0572 19.0145 12.0652C18.9408 12.0732 18.8696 12.0956 18.8048 12.131C18.7396 12.1656 18.682 12.2125 18.6352 12.2692C18.5885 12.3258 18.5535 12.3909 18.5323 12.4609C18.5112 12.5309 18.5042 12.6043 18.5119 12.6769C18.5195 12.7496 18.5416 12.82 18.5769 12.8842ZM16.8427 12.9517C16.8821 13.0245 16.9357 13.0889 17.0003 13.1413C17.065 13.1937 17.1395 13.2329 17.2196 13.2569C17.2996 13.2808 17.3837 13.289 17.4669 13.2809C17.5502 13.2727 17.631 13.2485 17.7048 13.2095C17.8524 13.1291 17.962 12.9946 18.0098 12.8351C18.0577 12.6756 18.0399 12.5039 17.9604 12.3572C17.8777 12.2162 17.7425 12.1125 17.5836 12.0681C17.4247 12.0238 17.2545 12.0422 17.1092 12.1195C16.9638 12.1968 16.8547 12.327 16.8049 12.4823C16.7552 12.6377 16.7687 12.806 16.8427 12.9517ZM22.7552 15.5041C22.8461 15.6736 23.0615 15.735 23.2281 15.6443C23.2691 15.6233 23.3054 15.5944 23.3349 15.5594C23.3645 15.5244 23.3866 15.4838 23.4 15.4402C23.4134 15.3966 23.4179 15.3508 23.4131 15.3055C23.4083 15.2602 23.3944 15.2163 23.3722 15.1763C23.328 15.0944 23.2529 15.033 23.1632 15.0052C23.0734 14.9775 22.9762 14.9857 22.8926 15.0281C22.7284 15.122 22.6599 15.3383 22.7552 15.5041ZM21.5346 22.1473C21.4901 22.0643 21.4294 21.9908 21.3559 21.9312C21.2823 21.8716 21.1975 21.8271 21.1063 21.8002C21.0152 21.7733 20.9195 21.7646 20.8249 21.7745C20.7302 21.7845 20.6386 21.813 20.5552 21.8583C20.4719 21.9022 20.3982 21.962 20.3385 22.0342C20.2788 22.1064 20.2342 22.1896 20.2073 22.279C20.1805 22.3684 20.1719 22.4621 20.1821 22.5548C20.1922 22.6474 20.221 22.7372 20.2666 22.8188C20.4562 23.1626 20.8937 23.2882 21.244 23.1068C21.592 22.917 21.7217 22.484 21.5346 22.1473ZM15.0458 21.4588C14.9918 21.3624 14.9016 21.2908 14.7946 21.2594C14.6876 21.2279 14.5724 21.2392 14.4738 21.2907C14.4249 21.3165 14.3817 21.3516 14.3465 21.3939C14.3114 21.4362 14.2851 21.485 14.2692 21.5374C14.2532 21.5898 14.2479 21.6447 14.2535 21.6992C14.2591 21.7536 14.2756 21.8064 14.3019 21.8545C14.3277 21.9031 14.3632 21.9462 14.4061 21.981C14.4491 22.0159 14.4987 22.0419 14.5521 22.0575C14.6054 22.0731 14.6614 22.078 14.7167 22.0718C14.772 22.0657 14.8255 22.0486 14.8739 22.0217C14.9227 21.9959 14.9659 21.9609 15.001 21.9186C15.036 21.8764 15.0623 21.8277 15.0783 21.7754C15.0942 21.7231 15.0996 21.6682 15.094 21.6139C15.0884 21.5596 15.072 21.5069 15.0458 21.4588ZM16.4851 22.3617C16.4226 22.2487 16.3172 22.1647 16.1921 22.1281C16.0669 22.0916 15.9322 22.1054 15.8174 22.1666C15.7598 22.1964 15.7089 22.2372 15.6676 22.2867C15.6263 22.3362 15.5954 22.3933 15.5768 22.4548C15.5582 22.5162 15.5523 22.5807 15.5593 22.6444C15.5663 22.7081 15.5862 22.7698 15.6178 22.8259C15.7422 23.0634 16.0443 23.1541 16.2836 23.0266C16.3987 22.9638 16.4843 22.859 16.5219 22.7347C16.5596 22.6104 16.5464 22.4765 16.4851 22.3617ZM18.1499 22.8008C18.0049 22.5312 17.6588 22.4353 17.3812 22.5751C17.2503 22.6462 17.153 22.7653 17.1103 22.9066C17.0677 23.0479 17.0831 23.2001 17.1534 23.3302C17.3037 23.6027 17.6459 23.7033 17.9197 23.5578C17.9857 23.5235 18.0441 23.4766 18.0915 23.4198C18.1389 23.363 18.1743 23.2974 18.1957 23.227C18.2172 23.1565 18.2242 23.0825 18.2163 23.0094C18.2084 22.9362 18.1859 22.8653 18.1499 22.8008ZM19.8818 22.7324C19.8011 22.5862 19.6652 22.4775 19.5036 22.4299C19.342 22.3823 19.1678 22.3997 19.0192 22.4783C18.709 22.6403 18.6013 23.0195 18.7698 23.3278C18.8084 23.4005 18.8614 23.4648 18.9256 23.5169C18.9898 23.569 19.0639 23.6079 19.1436 23.6312C19.2233 23.6546 19.3069 23.662 19.3896 23.653C19.4722 23.6439 19.5521 23.6186 19.6247 23.5786C19.9358 23.418 20.0464 23.0351 19.8818 22.7324ZM23.8164 17.2669C24.0246 17.1488 24.1041 16.8938 23.9954 16.6941C23.969 16.6459 23.9332 16.6034 23.8901 16.5688C23.847 16.5343 23.7974 16.5085 23.7442 16.4929C23.691 16.4773 23.6352 16.4722 23.58 16.4779C23.5248 16.4835 23.4713 16.4999 23.4224 16.5259C23.3728 16.5515 23.3288 16.5866 23.2931 16.6291C23.2574 16.6717 23.2307 16.7208 23.2146 16.7737C23.1984 16.8266 23.1932 16.8822 23.1991 16.9371C23.2051 16.992 23.2221 17.0452 23.2492 17.0936C23.3019 17.1899 23.3909 17.2621 23.4969 17.2945C23.603 17.3269 23.7177 17.317 23.8164 17.2669ZM23.8958 18.9716C24.1361 18.8427 24.2223 18.5466 24.0916 18.3114C24.0611 18.2552 24.0197 18.2054 23.9697 18.165C23.9196 18.1247 23.862 18.0944 23.8001 18.0761C23.7381 18.0577 23.6732 18.0516 23.6089 18.0582C23.5445 18.0647 23.4822 18.0837 23.4253 18.114C23.3102 18.1766 23.2246 18.2811 23.1866 18.4052C23.1487 18.5293 23.1615 18.6631 23.2224 18.778C23.3497 19.0108 23.6589 19.0967 23.8958 18.9716ZM23.4435 20.6135C23.724 20.4648 23.8217 20.1304 23.6785 19.857C23.607 19.7271 23.4863 19.6303 23.3427 19.588C23.1991 19.5456 23.0443 19.561 22.9122 19.6308C22.7802 19.7018 22.682 19.8212 22.6388 19.9632C22.5956 20.1052 22.6109 20.2583 22.6815 20.3892C22.7531 20.5179 22.8733 20.6135 23.0159 20.6555C23.1585 20.6975 23.3121 20.6824 23.4435 20.6135ZM22.5336 22.0288C22.8418 21.871 22.9557 21.4843 22.7887 21.1825C22.6192 20.8794 22.2363 20.7618 21.9295 20.9289C21.8561 20.968 21.7912 21.021 21.7386 21.0849C21.686 21.1487 21.6467 21.2222 21.6228 21.301C21.599 21.3799 21.5912 21.4626 21.5998 21.5444C21.6084 21.6263 21.6332 21.7056 21.6729 21.778C21.7122 21.8507 21.7657 21.915 21.8305 21.9671C21.8952 22.0192 21.9698 22.0581 22.0499 22.0814C22.1301 22.1048 22.2141 22.1122 22.2971 22.1031C22.3802 22.0941 22.4605 22.0688 22.5336 22.0288Z" fill="white"/>
<path d="M34.8492 19.6671C34.3597 19.6665 33.8905 19.4741 33.5447 19.1323C33.199 18.7905 33.005 18.3272 33.0054 17.8443C33.005 17.6052 33.0525 17.3683 33.1452 17.1473C33.2379 16.9263 33.3739 16.7256 33.5454 16.5566C33.717 16.3876 33.9207 16.2537 34.1448 16.1626C34.369 16.0716 34.6091 16.025 34.8516 16.0258C35.094 16.0254 35.3341 16.0721 35.5582 16.1635C35.7822 16.2548 35.9858 16.3889 36.1572 16.558C36.3286 16.7272 36.4644 16.928 36.557 17.1491C36.6495 17.3701 36.6969 17.607 36.6964 17.8462C36.6961 18.3293 36.5014 18.7925 36.155 19.134C35.8086 19.4755 35.3389 19.6672 34.8492 19.6671ZM27.6031 3.96287C27.6313 3.83389 27.6333 3.7007 27.6091 3.57095C27.5848 3.4412 27.5349 3.31745 27.462 3.20681C27.3891 3.09618 27.2948 3.00085 27.1845 2.9263C27.0741 2.85175 26.95 2.79945 26.8191 2.7724C26.6884 2.74434 26.5533 2.74204 26.4217 2.76566C26.2901 2.78927 26.1645 2.83832 26.0522 2.90998C25.9399 2.98165 25.843 3.07452 25.7672 3.18325C25.6914 3.29198 25.6381 3.41443 25.6104 3.54354C25.5541 3.80423 25.605 4.07633 25.752 4.29999C25.899 4.52364 26.13 4.68053 26.3942 4.73614C26.6585 4.79174 26.9343 4.74152 27.161 4.5965C27.3877 4.45149 27.5468 4.22356 27.6031 3.96287ZM31.24 6.53176C31.2656 6.37395 31.2594 6.2127 31.2217 6.05726C31.184 5.90183 31.1156 5.75525 31.0204 5.62594C30.9252 5.49662 30.8051 5.3871 30.6669 5.30366C30.5287 5.22021 30.3752 5.16448 30.2152 5.13965C29.8954 5.09694 29.5714 5.17939 29.3125 5.36936C29.0536 5.55933 28.8803 5.84174 28.8298 6.15614C28.7792 6.47055 28.8554 6.79198 29.0421 7.05166C29.2287 7.31134 29.511 7.48864 29.8284 7.54562C30.1518 7.59538 30.482 7.51659 30.7467 7.32653C31.0113 7.13648 31.1887 6.85067 31.24 6.53176ZM35.9874 13.7213C35.9994 13.5019 35.9673 13.2823 35.8931 13.0751C35.8188 12.8679 35.7038 12.6772 35.5547 12.5139C35.4056 12.3506 35.2253 12.218 35.0242 12.1236C34.823 12.0292 34.605 11.9749 34.3825 11.9637C34.16 11.9516 33.9372 11.983 33.727 12.0561C33.5169 12.1291 33.3234 12.2424 33.1577 12.3895C32.992 12.5365 32.8574 12.7144 32.7616 12.9129C32.6658 13.1114 32.6107 13.3266 32.5994 13.5462C32.5857 13.7668 32.6164 13.9879 32.6898 14.1967C32.7632 14.4056 32.8777 14.598 33.0269 14.7629C33.1761 14.9279 33.3569 15.062 33.5589 15.1576C33.7609 15.2532 33.9801 15.3084 34.2039 15.32C34.4276 15.3315 34.6515 15.2993 34.8625 15.225C35.0735 15.1508 35.2675 15.036 35.4334 14.8874C35.5992 14.7387 35.7336 14.5592 35.8286 14.359C35.9237 14.1589 35.9777 13.9422 35.9874 13.7213ZM19.1015 1.57674C19.1015 1.1711 18.7689 0.84668 18.3591 0.84668C18.1673 0.853484 17.9857 0.933429 17.8525 1.06969C17.7192 1.20594 17.6448 1.38788 17.6448 1.57721C17.6448 1.76653 17.7192 1.94847 17.8525 2.08473C17.9857 2.22099 18.1673 2.30093 18.3591 2.30774C18.7689 2.30774 19.1015 1.98143 19.1015 1.57674ZM26.3954 30.9565C26.2645 30.984 26.1403 31.0366 26.0299 31.1115C25.9196 31.1863 25.8253 31.2818 25.7524 31.3926C25.6051 31.6164 25.554 31.8886 25.6102 32.1496C25.6664 32.4105 25.8254 32.6387 26.0522 32.784C26.279 32.9293 26.555 32.9797 26.8195 32.9243C27.084 32.8688 27.3154 32.7119 27.4626 32.4882C27.6099 32.2644 27.661 31.9921 27.6048 31.7312C27.5486 31.4703 27.3896 31.242 27.1628 31.0968C26.936 30.9515 26.6599 30.901 26.3954 30.9565ZM29.8284 28.1487C29.6671 28.1722 29.5121 28.227 29.3724 28.3099C29.2327 28.3928 29.111 28.5022 29.0144 28.6318C28.9179 28.7614 28.8482 28.9086 28.8097 29.0649C28.7711 29.2212 28.7643 29.3835 28.7896 29.5424C28.815 29.7013 28.872 29.8537 28.9574 29.9907C29.0428 30.1277 29.1549 30.2467 29.2872 30.3407C29.4195 30.4348 29.5694 30.502 29.7282 30.5386C29.887 30.5751 30.0515 30.5803 30.2123 30.5537C30.5331 30.5007 30.8197 30.325 31.0098 30.0647C31.1999 29.8044 31.2782 29.4806 31.2276 29.1637C31.177 28.8467 31.0016 28.5623 30.7396 28.3722C30.4776 28.1822 30.1502 28.1018 29.8284 28.1487ZM32.4798 24.472C32.0742 24.514 31.7021 24.7134 31.4455 25.0261C31.1888 25.3388 31.0686 25.7392 31.1113 26.1394C31.1539 26.5395 31.356 26.9066 31.6729 27.1597C31.9899 27.4129 32.3958 27.5315 32.8014 27.4895C33.0025 27.469 33.1974 27.4096 33.3751 27.3147C33.5528 27.2197 33.7097 27.0911 33.8369 26.9362C33.9641 26.7813 34.059 26.6031 34.1163 26.4119C34.1735 26.2207 34.1919 26.0203 34.1704 25.822C34.1276 25.4219 33.9255 25.0549 33.6084 24.8017C33.2914 24.5485 32.8854 24.4299 32.4798 24.472ZM34.202 20.3868C33.7533 20.4109 33.3327 20.6096 33.0323 20.9393C32.7319 21.2689 32.5762 21.7026 32.5994 22.1453C32.6106 22.3649 32.6657 22.5801 32.7615 22.7787C32.8573 22.9772 32.9919 23.1551 33.1576 23.3021C33.3233 23.4492 33.5168 23.5625 33.727 23.6355C33.9372 23.7086 34.16 23.7399 34.3825 23.7277C34.6049 23.7166 34.8229 23.6622 35.024 23.5678C35.2251 23.4733 35.4054 23.3407 35.5544 23.1774C35.7035 23.0141 35.8184 22.8234 35.8926 22.6163C35.9668 22.4091 35.9989 22.1895 35.987 21.9701C35.9626 21.5268 35.761 21.1112 35.4264 20.8143C35.0917 20.5175 34.6514 20.3637 34.202 20.3868ZM18.3591 33.3852C18.1659 33.39 17.9823 33.4691 17.8474 33.6056C17.7125 33.7421 17.637 33.9253 17.637 34.1159C17.637 34.3066 17.7125 34.4897 17.8474 34.6262C17.9823 34.7627 18.1659 34.8418 18.3591 34.8467C18.5556 34.8467 18.744 34.7697 18.8829 34.6326C19.0218 34.4956 19.0998 34.3097 19.0998 34.1159C19.0998 33.9221 19.0218 33.7362 18.8829 33.5992C18.744 33.4621 18.5556 33.3852 18.3591 33.3852ZM1.86809 19.6671C2.35736 19.6661 2.82624 19.4736 3.17176 19.1318C3.51728 18.7901 3.71121 18.327 3.71095 17.8443C3.71133 17.6054 3.66393 17.3688 3.57145 17.1481C3.47898 16.9273 3.34326 16.7267 3.17206 16.5578C3.00087 16.3888 2.79757 16.2549 2.57381 16.1636C2.35004 16.0723 2.11022 16.0255 1.86809 16.0258C1.62555 16.0255 1.38532 16.0724 1.16116 16.1637C0.937006 16.2551 0.733313 16.3892 0.561743 16.5583C0.390173 16.7275 0.254094 16.9283 0.161292 17.1494C0.0684893 17.3705 0.0207864 17.6074 0.0209124 17.8467C0.0219257 18.3295 0.216924 18.7922 0.563172 19.1335C0.90942 19.4747 1.37867 19.6666 1.86809 19.6671ZM10.3228 4.73543C10.5871 4.68001 10.8184 4.52325 10.9656 4.29964C11.1128 4.07603 11.164 3.80388 11.1078 3.54307C11.0801 3.41398 11.0269 3.29155 10.9511 3.18282C10.8753 3.07408 10.7785 2.98118 10.6663 2.90944C10.554 2.8377 10.4285 2.78854 10.297 2.76478C10.1654 2.74102 10.0304 2.74313 9.89964 2.77099C9.76889 2.79839 9.64489 2.85094 9.53473 2.92563C9.42457 3.00031 9.33039 3.09567 9.25759 3.20626C9.18478 3.31685 9.13477 3.4405 9.1104 3.57016C9.08604 3.69982 9.0878 3.83294 9.11558 3.96193C9.14336 4.09092 9.19663 4.21324 9.27233 4.32192C9.34803 4.4306 9.4447 4.52351 9.55679 4.59533C9.66889 4.66716 9.79423 4.7165 9.92566 4.74054C10.0571 4.76457 10.192 4.76284 10.3228 4.73543ZM6.89074 7.54468C7.21429 7.49394 7.50421 7.31858 7.69681 7.05712C7.88941 6.79566 7.96895 6.46948 7.91795 6.15021C7.89262 5.99217 7.83594 5.84062 7.75114 5.70424C7.66635 5.56785 7.55512 5.4493 7.42382 5.35539C7.29252 5.26147 7.14373 5.19403 6.98597 5.15693C6.82821 5.11983 6.66458 5.1138 6.50445 5.13918C6.34446 5.16406 6.19101 5.21984 6.0529 5.30331C5.91478 5.38678 5.79472 5.4963 5.69957 5.62561C5.60442 5.75492 5.53606 5.90148 5.4984 6.05689C5.46074 6.2123 5.45452 6.37351 5.48011 6.53129C5.53097 6.85021 5.70816 7.13613 5.9727 7.32617C6.23724 7.51621 6.56746 7.59481 6.89074 7.54468ZM4.23749 11.2205C4.63586 11.1696 4.99827 10.967 5.24731 10.6561C5.49636 10.3452 5.6123 9.95048 5.57036 9.55636C5.52843 9.16223 5.33196 8.79991 5.0229 8.54676C4.71384 8.29362 4.3167 8.16972 3.9163 8.20154C3.7152 8.22203 3.52017 8.28152 3.34243 8.37657C3.16469 8.47163 3.00774 8.60038 2.88058 8.75545C2.75342 8.91051 2.65856 9.08883 2.60145 9.28016C2.54434 9.47149 2.52611 9.67207 2.54779 9.87037C2.56876 10.0685 2.62911 10.2607 2.7254 10.4358C2.82169 10.6109 2.95202 10.7656 3.10895 10.891C3.26589 11.0164 3.44633 11.11 3.63998 11.1665C3.83362 11.2231 4.03666 11.2414 4.23749 11.2205ZM2.51524 15.3052C2.96451 15.2816 3.38592 15.0831 3.68687 14.7531C3.98782 14.4232 4.14369 13.9889 4.12021 13.5457C4.1089 13.3259 4.05366 13.1105 3.9577 12.9118C3.86173 12.7132 3.72692 12.5352 3.561 12.3881C3.39509 12.241 3.20135 12.1277 2.99092 12.0547C2.78048 11.9817 2.5575 11.9505 2.33479 11.9628C2.11237 11.9741 1.89441 12.0287 1.69336 12.1232C1.49232 12.2177 1.31213 12.3504 1.16311 12.5137C1.01409 12.677 0.899166 12.8676 0.824899 13.0748C0.750633 13.2819 0.718485 13.5015 0.730296 13.7209C0.754169 14.1644 0.955602 14.5805 1.29031 14.8776C1.62503 15.1747 2.06562 15.3285 2.51524 15.3052ZM9.11558 31.73C9.08776 31.8591 9.08599 31.9923 9.11036 32.1221C9.13474 32.2518 9.18478 32.3756 9.25763 32.4863C9.33048 32.5969 9.42471 32.6924 9.53495 32.7671C9.64519 32.8419 9.76927 32.8945 9.90011 32.9219C10.031 32.9493 10.166 32.9511 10.2975 32.927C10.429 32.903 10.5545 32.8536 10.6667 32.7818C10.7789 32.7099 10.8756 32.6169 10.9514 32.5082C11.0271 32.3994 11.0805 32.277 11.1083 32.1479C11.1642 31.8872 11.1129 31.6152 10.9657 31.3918C10.8185 31.1683 10.5875 31.0116 10.3233 30.956C10.0591 30.9013 9.78376 30.952 9.55743 31.097C9.33109 31.2421 9.17222 31.4697 9.11558 31.73ZM5.48058 29.1602C5.45474 29.318 5.46076 29.4793 5.49831 29.6349C5.53585 29.7904 5.60418 29.9371 5.69937 30.0665C5.79456 30.1959 5.91472 30.3055 6.05297 30.3889C6.19121 30.4724 6.34481 30.5281 6.50493 30.5528C6.74589 30.5906 6.99281 30.5571 7.21446 30.4565C7.43611 30.3559 7.62254 30.1927 7.75017 29.9875C7.87779 29.7824 7.94088 29.5445 7.93145 29.304C7.92203 29.0634 7.84051 28.8311 7.69721 28.6363C7.55391 28.4414 7.35526 28.2929 7.1264 28.2095C6.89753 28.1261 6.64873 28.1115 6.41145 28.1676C6.17417 28.2236 5.95909 28.3479 5.79339 28.5246C5.6277 28.7013 5.51884 28.9225 5.48058 29.1602ZM2.54779 25.823C2.52618 26.0211 2.54446 26.2215 2.60159 26.4127C2.65872 26.6039 2.75356 26.782 2.88068 26.9369C3.0078 27.0918 3.16469 27.2204 3.34233 27.3153C3.51997 27.4102 3.71487 27.4696 3.91582 27.4899C4.11671 27.5111 4.31986 27.493 4.51364 27.4366C4.70742 27.3802 4.88801 27.2866 5.04507 27.1613C5.20212 27.0359 5.33256 26.8812 5.42889 26.706C5.52523 26.5308 5.58558 26.3386 5.60647 26.1403C5.62757 25.9421 5.60888 25.7417 5.55147 25.5506C5.49406 25.3595 5.39906 25.1814 5.2719 25.0266C5.14473 24.8717 4.98788 24.743 4.81032 24.648C4.63275 24.5529 4.43794 24.4932 4.23701 24.4724C4.03616 24.4514 3.83309 24.4697 3.63942 24.5263C3.44575 24.5828 3.26529 24.6765 3.10838 24.802C2.95147 24.9274 2.82118 25.0822 2.72499 25.2574C2.62879 25.4326 2.56858 25.6248 2.54779 25.823ZM0.730296 21.9697C0.718359 22.1891 0.750421 22.4086 0.824645 22.6158C0.89887 22.823 1.0138 23.0136 1.16285 23.1769C1.3119 23.3402 1.49213 23.4728 1.69324 23.5673C1.89434 23.6617 2.11235 23.7161 2.33479 23.7273C2.55751 23.7397 2.78053 23.7086 2.99102 23.6358C3.2015 23.5629 3.3953 23.4496 3.56124 23.3025C3.72719 23.1555 3.86201 22.9775 3.95794 22.7788C4.05387 22.5801 4.10902 22.3646 4.12021 22.1448C4.1433 21.7018 3.98727 21.2678 3.68637 20.9381C3.38548 20.6084 2.96429 20.41 2.51524 20.3863C2.06594 20.3636 1.62584 20.5175 1.2913 20.8143C0.956756 21.111 0.755034 21.5265 0.730296 21.9697ZM22.4211 32.8034C22.2172 32.8575 22.0435 32.9891 21.9379 33.1695C21.8323 33.3498 21.8034 33.564 21.8577 33.7653C21.9126 33.9662 22.0462 34.1375 22.229 34.2413C22.4118 34.3452 22.629 34.3732 22.8327 34.3192C22.9339 34.2929 23.0288 34.2471 23.112 34.1845C23.1952 34.1219 23.265 34.0437 23.3175 33.9545C23.3699 33.8652 23.404 33.7665 23.4178 33.6642C23.4315 33.5619 23.4247 33.4579 23.3976 33.3582C23.3426 33.1569 23.2089 32.9854 23.0258 32.8813C22.8427 32.7773 22.6251 32.7492 22.4211 32.8034ZM14.2962 32.8034C14.0942 32.7546 13.8808 32.7859 13.7019 32.8904C13.5229 32.9949 13.3925 33.1644 13.3387 33.3626C13.2849 33.5608 13.3119 33.7719 13.4139 33.9507C13.5159 34.1295 13.6849 34.2618 13.8845 34.3192C13.9862 34.3485 14.0928 34.3574 14.1981 34.3454C14.3033 34.3335 14.4051 34.3009 14.4974 34.2496C14.5897 34.1984 14.6707 34.1294 14.7357 34.0469C14.8006 33.9643 14.8482 33.8698 14.8756 33.7688C14.903 33.6679 14.9097 33.5625 14.8953 33.459C14.8809 33.3555 14.8457 33.2558 14.7917 33.1659C14.7377 33.076 14.6661 32.9976 14.581 32.9353C14.4959 32.8731 14.3991 32.8282 14.2962 32.8034ZM23.398 2.33465C23.425 2.23493 23.4317 2.13095 23.4179 2.02865C23.4041 1.92636 23.3699 1.82775 23.3174 1.73849C23.2649 1.64923 23.1951 1.57107 23.1119 1.50847C23.0287 1.44587 22.9339 1.40006 22.8327 1.37368C22.6324 1.32977 22.4226 1.36388 22.2472 1.4689C22.0717 1.57391 21.9442 1.74171 21.8911 1.93729C21.8381 2.13286 21.8636 2.34108 21.9625 2.51851C22.0613 2.69593 22.2258 2.82885 22.4216 2.88951C22.5226 2.91644 22.628 2.92344 22.7318 2.91012C22.8356 2.8968 22.9357 2.86342 23.0264 2.81188C23.1171 2.76034 23.1967 2.69166 23.2604 2.60977C23.3242 2.52788 23.3709 2.43439 23.398 2.33465ZM14.861 1.92712C14.8339 1.82744 14.7871 1.73403 14.7233 1.65223C14.6595 1.57043 14.5799 1.50186 14.4892 1.45045C14.3985 1.39903 14.2984 1.36578 14.1946 1.35261C14.0909 1.33944 13.9855 1.3466 13.8845 1.37368C13.7836 1.40011 13.689 1.44591 13.606 1.50846C13.5231 1.57101 13.4535 1.64908 13.4011 1.7382C13.3488 1.82733 13.3148 1.92576 13.3011 2.02786C13.2874 2.12996 13.2942 2.23373 13.3211 2.33324C13.3482 2.43298 13.3949 2.5265 13.4585 2.60845C13.5222 2.6904 13.6016 2.75918 13.6922 2.81086C13.7828 2.86254 13.8828 2.8961 13.9866 2.90964C14.0904 2.92317 14.1958 2.91641 14.2969 2.88975C14.398 2.86308 14.4928 2.81703 14.5759 2.75422C14.6589 2.69142 14.7287 2.61308 14.781 2.52369C14.8334 2.43431 14.8675 2.33562 14.8812 2.23326C14.8949 2.1309 14.888 2.02687 14.861 1.92712Z" fill="white"/>
<path d="M30.7532 14.1225C30.402 14.2714 30.0052 14.2767 29.65 14.1371C29.2949 13.9976 29.0104 13.7246 28.8591 13.3783C28.7841 13.2068 28.744 13.0223 28.7413 12.8356C28.7386 12.6488 28.7733 12.4633 28.8434 12.2898C28.9135 12.1162 29.0176 11.958 29.1497 11.8243C29.2819 11.6905 29.4395 11.5837 29.6135 11.5101C29.963 11.3704 30.354 11.3712 30.7028 11.5125C31.0516 11.6538 31.3305 11.9243 31.4795 12.266C31.6286 12.6076 31.636 12.9933 31.5003 13.3404C31.3645 13.6874 31.0963 13.9682 30.7532 14.1225ZM20.6347 5.07423C20.6146 4.97308 20.5745 4.87685 20.5165 4.79107C20.4586 4.70529 20.3841 4.63167 20.2972 4.57444C20.2103 4.5172 20.1128 4.47749 20.0103 4.45758C19.9077 4.43768 19.8023 4.43797 19.6999 4.45845C19.5973 4.47815 19.4996 4.51769 19.4126 4.5748C19.3256 4.63191 19.2508 4.70545 19.1928 4.79119C19.1347 4.87693 19.0944 4.97317 19.0742 5.07435C19.0541 5.17553 19.0544 5.27965 19.0752 5.3807C19.1225 5.57874 19.2458 5.75094 19.4193 5.86098C19.5927 5.97102 19.8027 6.01031 20.005 5.97056C20.2072 5.93082 20.386 5.81514 20.5034 5.64792C20.6209 5.4807 20.668 5.27502 20.6347 5.07423ZM24.0481 5.80665C24.017 5.68564 23.9621 5.57186 23.8863 5.47187C23.8106 5.37187 23.7156 5.28762 23.6067 5.22395C23.4979 5.16029 23.3774 5.11846 23.2521 5.10087C23.1268 5.08328 22.9993 5.09027 22.8768 5.12145C22.754 5.15192 22.6385 5.20604 22.537 5.2807C22.4355 5.35536 22.35 5.44908 22.2853 5.55648C22.2207 5.66387 22.1782 5.78282 22.1604 5.90647C22.1425 6.03013 22.1496 6.15605 22.1813 6.27698C22.2126 6.39791 22.2677 6.51157 22.3435 6.61147C22.4194 6.71137 22.5144 6.79556 22.6232 6.85923C22.732 6.9229 22.8525 6.9648 22.9777 6.98255C23.1029 7.00029 23.2305 6.99353 23.353 6.96265C23.4756 6.93177 23.5908 6.87737 23.6921 6.80256C23.7934 6.72775 23.8787 6.634 23.9432 6.52665C24.0078 6.41931 24.0503 6.30048 24.0682 6.17694C24.0862 6.0534 24.0794 5.92757 24.0481 5.80665ZM27.1953 7.30501C27.1487 7.15635 27.0727 7.01825 26.9718 6.89864C26.8709 6.77903 26.747 6.68028 26.6073 6.60805C26.4676 6.53582 26.3148 6.49154 26.1577 6.47775C26.0006 6.46397 25.8423 6.48096 25.6918 6.52773C25.5411 6.5738 25.4011 6.64877 25.2798 6.74833C25.1585 6.8479 25.0583 6.9701 24.9849 7.10794C24.9116 7.24578 24.8666 7.39655 24.8524 7.55159C24.8383 7.70664 24.8553 7.86291 24.9025 8.01145C25.0038 8.30365 25.2168 8.54529 25.496 8.68494C25.7752 8.82458 26.0986 8.85121 26.3974 8.75914C26.6962 8.66707 26.9468 8.46359 27.0958 8.192C27.2449 7.92041 27.2805 7.60217 27.1953 7.30501ZM29.7054 9.51218C29.6452 9.35121 29.5535 9.20353 29.4353 9.07761C29.3172 8.9517 29.1751 8.85001 29.017 8.77837C28.859 8.70674 28.6882 8.66657 28.5144 8.66016C28.3406 8.65376 28.1673 8.68124 28.0042 8.74104C27.8408 8.80011 27.6909 8.89047 27.563 9.00691C27.4351 9.12336 27.3318 9.26359 27.259 9.41956C27.1862 9.57552 27.1454 9.74413 27.1389 9.91571C27.1324 10.0873 27.1604 10.2584 27.2211 10.4193C27.3431 10.7443 27.5909 11.0082 27.9101 11.153C28.2292 11.2977 28.5936 11.3115 28.923 11.1912C29.2525 11.0709 29.52 10.8264 29.6667 10.5115C29.8134 10.1967 29.8274 9.83718 29.7054 9.51218ZM13.7926 5.95681C13.7625 5.88787 13.7189 5.82546 13.6643 5.77317C13.6097 5.72088 13.5452 5.67974 13.4745 5.6521C13.4037 5.62446 13.3281 5.61087 13.252 5.61211C13.176 5.61335 13.1009 5.62939 13.0311 5.65931C12.8903 5.71924 12.7794 5.83189 12.7228 5.97248C12.6662 6.11306 12.6685 6.27007 12.7293 6.40897C12.79 6.54786 12.9042 6.65726 13.0467 6.71309C13.1892 6.76893 13.3484 6.76663 13.4892 6.7067C13.7826 6.58204 13.9195 6.24581 13.7926 5.95681ZM28.2302 24.7952C28.0632 24.9176 27.9516 25.0997 27.919 25.3024C27.8864 25.5051 27.9356 25.7123 28.056 25.8797C28.1763 26.0471 28.3583 26.1614 28.563 26.198C28.7677 26.2347 28.9788 26.1908 29.1511 26.0758C29.2364 26.0162 29.3089 25.9405 29.3644 25.8532C29.42 25.7658 29.4576 25.6685 29.4749 25.5669C29.4923 25.4652 29.4892 25.3611 29.4658 25.2606C29.4423 25.1601 29.399 25.0652 29.3383 24.9812C29.2779 24.8972 29.2014 24.8257 29.113 24.7709C29.0247 24.7161 28.9262 24.679 28.8233 24.6617C28.7204 24.6444 28.6151 24.6473 28.5133 24.6702C28.4115 24.6931 28.3153 24.7356 28.2302 24.7952ZM29.8117 21.7342C29.7022 21.7997 29.6069 21.886 29.5316 21.9882C29.4563 22.0904 29.4024 22.2064 29.373 22.3293C29.3436 22.4523 29.3394 22.5798 29.3606 22.7044C29.3818 22.829 29.4279 22.9482 29.4963 23.055C29.5647 23.1618 29.654 23.2541 29.759 23.3265C29.8639 23.3989 29.9825 23.4499 30.1077 23.4765C30.2329 23.5031 30.3622 23.5049 30.4881 23.4817C30.6139 23.4584 30.7339 23.4107 30.8408 23.3412C31.0516 23.2043 31.1995 22.9912 31.2528 22.7478C31.306 22.5044 31.2603 22.2501 31.1255 22.0396C30.9907 21.8291 30.7775 21.6791 30.5318 21.622C30.2862 21.5649 30.0276 21.6052 29.8117 21.7342ZM30.5598 18.2898C30.2822 18.4441 30.0779 18.7007 29.9918 19.0034C29.9057 19.3061 29.9449 19.6302 30.1008 19.9044C30.178 20.0399 30.2816 20.1592 30.4056 20.2552C30.5297 20.3512 30.6717 20.4221 30.8235 20.4639C30.9753 20.5057 31.134 20.5176 31.2905 20.4988C31.447 20.48 31.5982 20.4309 31.7355 20.3544C31.8732 20.2787 31.9945 20.1768 32.0922 20.0547C32.1899 19.9326 32.2622 19.7926 32.3049 19.6428C32.3476 19.493 32.3599 19.3364 32.341 19.1819C32.3221 19.0275 32.2725 18.8782 32.195 18.7427C32.1179 18.6069 32.0144 18.4875 31.8905 18.3912C31.7665 18.2949 31.6245 18.2237 31.4726 18.1816C31.3208 18.1396 31.1619 18.1275 31.0053 18.1461C30.8487 18.1646 30.6973 18.2135 30.5598 18.2898ZM30.5144 14.836C30.2003 14.9899 29.9609 15.2605 29.8488 15.5883C29.7366 15.9161 29.7608 16.2744 29.916 16.5846C29.9929 16.7388 30.0999 16.8764 30.2309 16.9896C30.3619 17.1028 30.5142 17.1893 30.6792 17.2442C30.8442 17.2991 31.0186 17.3213 31.1923 17.3095C31.366 17.2977 31.5356 17.2521 31.6914 17.1754C31.8474 17.0997 31.9867 16.9942 32.1013 16.8652C32.2159 16.7362 32.3035 16.5861 32.3591 16.4235C32.4147 16.261 32.4372 16.0892 32.4253 15.9181C32.4134 15.7469 32.3673 15.5798 32.2897 15.4263C32.1334 15.116 31.8587 14.8795 31.5258 14.7689C31.193 14.6582 30.8292 14.6823 30.5144 14.836ZM23.2295 28.988C23.1598 29.0177 23.0967 29.0606 23.0437 29.1144C22.9908 29.1681 22.9491 29.2316 22.9211 29.3013C22.8931 29.3709 22.8792 29.4453 22.8803 29.5202C22.8814 29.5951 22.8974 29.6691 22.9275 29.7379C22.9883 29.8769 23.1025 29.9863 23.245 30.0422C23.3156 30.0699 23.391 30.0836 23.467 30.0825C23.5429 30.0814 23.6179 30.0656 23.6876 30.0359C23.9811 29.9112 24.118 29.5755 23.9916 29.2851C23.9304 29.146 23.8158 29.0367 23.6729 28.981C23.53 28.9253 23.3705 28.9278 23.2295 28.988ZM7.10662 24.1832C7.45727 24.0333 7.73325 23.7521 7.8739 23.4016C8.01455 23.051 8.00836 22.6597 7.85669 22.3136C7.78207 22.1423 7.67393 21.9872 7.53846 21.8572C7.40299 21.7272 7.24286 21.6249 7.06723 21.556C6.8916 21.4871 6.70392 21.4531 6.51495 21.4559C6.32598 21.4587 6.13942 21.4982 5.96596 21.5723C5.79192 21.6458 5.63431 21.7526 5.50218 21.8864C5.37004 22.0202 5.26597 22.1784 5.19593 22.3519C5.12589 22.5255 5.09126 22.711 5.09403 22.8977C5.0968 23.0845 5.13691 23.2689 5.21206 23.4404C5.36368 23.7865 5.64835 24.0592 6.00357 24.1984C6.35878 24.3377 6.7555 24.3322 7.10662 24.1832ZM8.48805 10.8986C8.57321 10.8392 8.64567 10.7638 8.70129 10.6767C8.7569 10.5897 8.79459 10.4927 8.81219 10.3912C8.82979 10.2898 8.82697 10.1859 8.80387 10.0856C8.78078 9.98524 8.73787 9.89036 8.6776 9.80637C8.61765 9.72195 8.54134 9.65008 8.45308 9.59491C8.36482 9.53974 8.26636 9.50237 8.16338 9.48494C8.0604 9.46751 7.95495 9.47037 7.85309 9.49336C7.75124 9.51636 7.65502 9.55902 7.56997 9.6189C7.48432 9.67821 7.41142 9.75367 7.35549 9.84092C7.29955 9.92817 7.26168 10.0255 7.24405 10.1272C7.22643 10.229 7.22941 10.3332 7.25281 10.4338C7.27622 10.5345 7.31959 10.6295 7.38042 10.7135C7.50261 10.8827 7.68782 10.9972 7.89545 11.0319C8.10308 11.0666 8.31618 11.0187 8.48805 10.8986ZM6.90797 13.9591C7.01511 13.8923 7.10785 13.8053 7.18088 13.703C7.25391 13.6008 7.3058 13.4854 7.33358 13.3634C7.36137 13.2414 7.3645 13.1152 7.3428 12.992C7.32111 12.8688 7.27501 12.751 7.20714 12.6454C7.07035 12.4325 6.85346 12.282 6.60417 12.2269C6.35489 12.1718 6.09363 12.2167 5.87788 12.3516C5.66213 12.4866 5.50955 12.7006 5.45372 12.9465C5.39788 13.1924 5.44336 13.4502 5.58015 13.663C5.71643 13.876 5.93289 14.0268 6.1819 14.0823C6.43092 14.1379 6.69209 14.0935 6.90797 13.9591ZM6.15742 17.404C6.2996 17.3303 6.42537 17.2293 6.52728 17.1068C6.6292 16.9844 6.70518 16.8431 6.75075 16.6911C6.79632 16.5392 6.81054 16.3798 6.79258 16.2224C6.77462 16.065 6.72483 15.9127 6.64617 15.7746C6.56751 15.6365 6.46157 15.5153 6.33462 15.4183C6.20766 15.3213 6.06228 15.2504 5.90706 15.2097C5.75184 15.1691 5.58994 15.1596 5.43093 15.1818C5.27193 15.204 5.11905 15.2574 4.98134 15.3389C4.70488 15.4934 4.50175 15.7496 4.41645 16.0515C4.33114 16.3534 4.37063 16.6764 4.52625 16.9496C4.68187 17.2229 4.94094 17.4241 5.24668 17.5093C5.55243 17.5944 5.87993 17.5566 6.15742 17.404ZM6.20385 20.8587C6.51856 20.7048 6.75839 20.4339 6.8706 20.1055C6.98281 19.7771 6.9582 19.4182 6.80219 19.1077C6.72537 18.9535 6.61837 18.8158 6.48736 18.7025C6.35635 18.5893 6.20391 18.5027 6.03883 18.4478C5.87376 18.393 5.6993 18.3709 5.52553 18.3828C5.35176 18.3948 5.1821 18.4405 5.02633 18.5175C4.87048 18.5934 4.73133 18.699 4.61685 18.8281C4.50236 18.9572 4.41479 19.1072 4.35913 19.2697C4.30348 19.4322 4.28083 19.6039 4.29248 19.775C4.30413 19.9462 4.34986 20.1134 4.42704 20.267C4.58329 20.5778 4.85819 20.8147 5.19134 20.9256C5.52449 21.0365 5.88866 21.0125 6.20385 20.8587ZM16.0835 30.6215C16.104 30.7227 16.1444 30.8189 16.2025 30.9047C16.2607 30.9905 16.3353 31.0641 16.4223 31.1215C16.5093 31.1788 16.6069 31.2186 16.7095 31.2387C16.8121 31.2588 16.9177 31.2588 17.0203 31.2386C17.2272 31.1971 17.4091 31.0763 17.5259 30.9027C17.6427 30.7291 17.685 30.5169 17.6435 30.3126C17.6015 30.1089 17.4794 29.9298 17.304 29.8146C17.1285 29.6994 16.914 29.6574 16.7072 29.6978C16.5005 29.7389 16.3187 29.8593 16.2018 30.0324C16.0849 30.2056 16.0424 30.4174 16.0835 30.6215ZM12.6721 29.8871C12.703 30.0082 12.7579 30.122 12.8336 30.2221C12.9092 30.3221 13.0042 30.4065 13.113 30.4702C13.2218 30.534 13.3422 30.5759 13.4675 30.5936C13.5928 30.6113 13.7203 30.6044 13.8429 30.5733C14.0903 30.5109 14.3025 30.3541 14.4328 30.1374C14.563 29.9207 14.6007 29.6619 14.5374 29.4178C14.4742 29.1737 14.3153 28.9643 14.0956 28.8358C13.876 28.7073 13.6136 28.6702 13.3661 28.7326C13.2437 28.7634 13.1287 28.8178 13.0275 28.8925C12.9264 28.9672 12.8412 29.0608 12.7767 29.168C12.7123 29.2753 12.6699 29.3939 12.6519 29.5173C12.6339 29.6407 12.6408 29.7664 12.6721 29.8871ZM9.52389 28.3883C9.57019 28.5371 9.64591 28.6753 9.74667 28.7951C9.84742 28.9148 9.97123 29.0136 10.1109 29.0859C10.2506 29.1582 10.4035 29.2024 10.5606 29.2161C10.7177 29.2298 10.8761 29.2126 11.0264 29.1656C11.1772 29.1198 11.3173 29.045 11.4387 28.9456C11.5601 28.8463 11.6604 28.7242 11.7338 28.5864C11.8072 28.4487 11.8523 28.298 11.8666 28.143C11.8808 27.988 11.8639 27.8318 11.8167 27.6833C11.7213 27.3833 11.5092 27.1329 11.2268 26.9871C10.9445 26.8413 10.6151 26.8119 10.3108 26.9055C10.1603 26.9516 10.0204 27.0266 9.89933 27.1262C9.77824 27.2257 9.67826 27.3479 9.60514 27.4857C9.53203 27.6234 9.48721 27.7741 9.47327 27.929C9.45932 28.0839 9.47652 28.24 9.52389 28.3883ZM7.0128 26.1797C7.07267 26.3409 7.16427 26.4889 7.28232 26.615C7.40037 26.7411 7.54254 26.843 7.70066 26.9147C7.85877 26.9864 8.0297 27.0266 8.20361 27.0329C8.37752 27.0392 8.55097 27.0115 8.71398 26.9513C9.03644 26.8263 9.29639 26.5816 9.43805 26.2697C9.57971 25.9578 9.59179 25.6035 9.47171 25.2829C9.35163 24.9623 9.10895 24.7009 8.79574 24.5548C8.48253 24.4087 8.12374 24.3896 7.79638 24.5015C7.46713 24.6218 7.19973 24.8661 7.05283 25.1808C6.90593 25.4954 6.89154 25.8546 7.0128 26.1797ZM25.9589 27.3315C25.8356 27.4342 25.7577 27.5803 25.7416 27.7387C25.7256 27.8971 25.7726 28.0555 25.8728 28.1803C25.973 28.3051 26.1185 28.3865 26.2785 28.4074C26.4385 28.4282 26.6004 28.3868 26.73 28.292C26.7969 28.2431 26.8531 28.1814 26.8953 28.1106C26.9376 28.0398 26.9649 27.9614 26.9758 27.88C26.9867 27.7986 26.9809 27.7158 26.9588 27.6366C26.9366 27.5575 26.8986 27.4835 26.8469 27.4191C26.7952 27.3548 26.731 27.3013 26.6579 27.2619C26.5849 27.2225 26.5046 27.198 26.4217 27.1898C26.3389 27.1816 26.2552 27.19 26.1757 27.2143C26.0962 27.2386 26.0225 27.2785 25.9589 27.3315ZM20.134 29.8088C19.9711 29.833 19.8246 29.9199 19.7265 30.0504C19.6284 30.181 19.5866 30.3445 19.6103 30.5053C19.6221 30.5849 19.6497 30.6615 19.6915 30.7306C19.7333 30.7997 19.7885 30.86 19.8539 30.908C19.9194 30.956 19.9938 30.9908 20.0729 31.0105C20.152 31.0301 20.2343 31.0341 20.3149 31.0224C20.3958 31.0109 20.4736 30.9838 20.5438 30.9427C20.614 30.9015 20.6753 30.8471 20.7242 30.7825C20.7731 30.718 20.8086 30.6445 20.8286 30.5664C20.8486 30.4883 20.8528 30.407 20.841 30.3273C20.8292 30.2474 20.8015 30.1706 20.7595 30.1013C20.7176 30.032 20.6622 29.9715 20.5965 29.9233C20.5308 29.8752 20.4562 29.8403 20.3768 29.8206C20.2975 29.8009 20.215 29.7969 20.134 29.8088ZM17.1103 5.18898C17.0984 5.10919 17.0707 5.0325 17.0287 4.96331C16.9867 4.89413 16.9312 4.8338 16.8655 4.7858C16.7999 4.7378 16.7252 4.70307 16.6459 4.68361C16.5666 4.66414 16.4841 4.66032 16.4033 4.67237C16.2403 4.69604 16.0936 4.7826 15.9954 4.913C15.8971 5.0434 15.8554 5.20697 15.8794 5.36772C15.9034 5.52846 15.9911 5.67322 16.1233 5.77015C16.2555 5.86708 16.4213 5.90824 16.5842 5.88456C16.7474 5.86109 16.8946 5.77463 16.9932 5.6442C17.0918 5.51377 17.134 5.35003 17.1103 5.18898ZM10.8618 7.50145C10.7591 7.3741 10.6096 7.29202 10.4458 7.27317C10.282 7.25432 10.1173 7.30024 9.98771 7.40087C9.89118 7.4762 9.81947 7.57807 9.78163 7.69361C9.74379 7.80914 9.74153 7.93316 9.77513 8.04996C9.80873 8.16677 9.87669 8.27112 9.97042 8.34982C10.0641 8.42852 10.1794 8.47803 10.3017 8.4921C10.4239 8.50617 10.5476 8.48416 10.6572 8.42885C10.7668 8.37354 10.8572 8.28743 10.9172 8.18139C10.9772 8.07535 11.0039 7.95415 10.994 7.83313C10.9841 7.7121 10.9381 7.59667 10.8618 7.50145Z" fill="white"/>
</g>
<defs>
<clipPath id="clip0_2_567">
<rect width="120" height="34" fill="white" transform="translate(0 0.84668)"/>
</clipPath>
</defs>
</svg>
